<svg width="300" height="412" viewBox="0 0 300 412" fill="none" xmlns="http://www.w3.org/2000/svg">
<path d="M183.187 411.139C247.217 411.139 299.124 358.966 299.124 294.607C299.124 230.249 247.217 178.076 183.187 178.076C119.157 178.076 67.2506 230.249 67.2506 294.607C67.2506 358.966 119.157 411.139 183.187 411.139Z" fill="white"/>
<path d="M90.4415 247.995C136.543 247.995 173.916 210.431 173.916 164.093C173.916 117.755 136.543 80.1904 90.4415 80.1904C44.3399 80.1904 6.96716 117.755 6.96716 164.093C6.96716 210.431 44.3399 247.995 90.4415 247.995Z" fill="white"/>
<path d="M211.013 122.142C244.309 122.142 271.3 95.0117 271.3 61.5452C271.3 28.0787 244.309 0.94873 211.013 0.94873C177.718 0.94873 150.726 28.0787 150.726 61.5452C150.726 95.0117 177.718 122.142 211.013 122.142Z" fill="white"/>
<g clip-path="url(#clip0_1601_11900)">
<path d="M125.735 242.981C124.611 242.78 118.48 243.171 118.551 242.013C118.558 241.578 119.105 241.235 119.467 241.493C131.992 241.335 144.412 239.42 156.867 238.252C171.801 237.032 186.62 234.956 201.408 232.595H201.389C206.292 231.78 211.114 230.481 216.009 229.688L215.83 229.718C218.869 228.804 218.694 232.442 215.921 232.324C215.981 232.313 216.042 232.305 216.101 232.293C189.217 238.186 161.729 240.762 134.313 242.708H134.46L133.269 242.739H133.278C130.76 242.783 128.249 242.966 125.735 242.981Z" fill="#FC8650"/>
<path d="M149.506 251.668C149.677 251.01 148.886 250.36 150.032 250.261C153.692 249.436 157.364 248.663 161.057 247.979C171.457 245.728 181.874 243.542 192.417 242.056L192.335 242.07L192.523 242.038C201.217 240.602 209.911 238.98 218.466 236.858C220.393 235.691 221.56 238.184 219.645 239.096C211.59 241.384 203.289 242.869 195.049 244.342L195.096 244.335L194.212 244.482H194.241C189.463 245.285 184.664 245.974 179.903 246.861L179.957 246.851L179.769 246.883L179.854 246.869C171.169 248.315 162.595 250.761 153.773 251.201H153.897C152.637 251.254 151.361 251.334 150.112 251.126C150.098 251.421 150.179 251.914 149.79 251.976C149.749 251.982 149.708 251.978 149.669 251.964C149.63 251.951 149.595 251.928 149.567 251.897C149.539 251.867 149.518 251.83 149.508 251.79C149.497 251.75 149.497 251.708 149.506 251.668Z" fill="#FC8650"/>
<path d="M152.737 258.93C151.843 258.716 148.192 259.068 148.435 257.767C148.474 257.675 148.542 257.598 148.629 257.547C148.715 257.497 148.815 257.475 148.915 257.486C151.489 257.384 154.072 256.947 156.617 256.509L156.47 256.536L157.206 256.412L157.305 256.396H157.293C157.735 256.323 158.177 256.249 158.62 256.175L158.574 256.182C179.017 252.477 199.847 250.453 219.888 244.859L219.754 244.9C220.368 244.753 220.909 244.264 221.563 244.395C222.816 244.656 222.645 246.431 221.628 246.9C211.962 250.191 201.725 251.709 191.685 253.529H191.72L191.202 253.616L191.389 253.585C178.503 255.325 165.738 258.295 152.737 258.93Z" fill="#FC8650"/>
<path d="M152.222 267.385C151.41 267.427 144.966 267.151 147.76 265.643C147.952 265.665 148.146 265.672 148.339 265.665H148.324C155.699 264.865 163.05 263.817 170.475 263.582C176.907 262.936 183.295 261.636 189.778 261.667H189.585C191.028 261.752 192.397 261.397 193.78 261.054C195.6 260.918 195.425 263.635 193.854 263.893C190.245 264.853 186.458 264.482 182.779 265.002C172.649 266.398 162.445 267.194 152.222 267.385Z" fill="#FC8650"/>
<path d="M192.799 263.765C191.01 260.671 197.072 260.69 198.849 260.026C204.042 258.828 209.211 257.495 214.502 256.805C217.026 256.29 219.552 255.801 222.102 255.431C223.101 255.295 224.301 254.641 225.231 255.235C226.457 256.53 224.736 257.866 223.393 257.857C218.71 258.799 214.016 259.653 209.309 260.468C204.826 261.446 200.448 262.92 195.901 263.589C194.894 263.636 193.727 264.323 192.799 263.765Z" fill="#FC8650"/>
<path d="M143.89 279.007C142.989 278.814 141.668 279.063 141.052 278.271C140.778 277.573 141.789 277.039 142.34 277.341L143.077 277.321H142.971C155.297 276.546 167.608 275.379 179.956 274.9H179.866C192.04 274.442 203.933 271.678 215.819 269.225C218.362 268.715 220.855 267.982 223.269 267.035C224.715 266.752 228.279 264.327 227.892 267.41C227.008 269.209 222.699 269.704 220.835 270.635L220.912 270.613L220.731 270.669L220.765 270.659L220.39 270.774L220.468 270.749C208.48 273.635 196.354 276.347 184.037 277.315C170.66 277.864 157.288 279.332 143.89 279.007Z" fill="#FC8650"/>
<path d="M162.831 290.12C160.326 289.964 157.799 289.936 155.286 289.79C153.898 289.721 150.328 291.173 150.263 288.927C149.755 288.801 149.214 288.731 148.735 288.526C148.473 287.99 149.437 288.084 149.749 288.028C152.724 287.671 155.734 287.483 158.758 287.303C170.764 286.344 182.878 286.338 194.748 284.227C196.418 284.404 195.837 286.664 194.454 286.864C189.136 288.384 183.482 288.399 177.993 288.798C172.946 289.285 167.92 290.297 162.831 290.12Z" fill="#FC8650"/>
<path d="M163.531 299.539C161.693 296.244 167.559 297.247 169.277 297.135C172.666 297.231 176.038 296.734 179.425 296.571C183.323 296.148 187.235 295.834 191.106 295.164C192.615 295.273 196.674 293.249 196.633 295.824C195.923 297.782 193.049 297.184 191.389 297.695C189.031 298.197 186.626 298.486 184.225 298.735C177.393 299.223 170.291 300.161 163.531 299.539Z" fill="#FC8650"/>
<path d="M171.927 308.713C171.751 308.648 171.594 308.541 171.471 308.4C171.348 308.26 171.262 308.091 171.221 307.908C170.699 307.833 169.55 307.868 169.686 307.086C169.715 306.976 169.779 306.878 169.87 306.809C169.96 306.739 170.071 306.701 170.185 306.702C170.63 306.722 171.075 306.688 171.511 306.6C172.395 305.446 173.962 306.37 175.177 305.95C181.566 304.61 188.144 304.521 194.511 303.11C196.023 302.584 196.942 304.322 195.543 305.172C192.761 306.056 189.796 306.451 186.899 306.85C183.834 307.176 180.841 307.935 177.763 308.203C175.867 308.537 173.861 309.241 171.927 308.713Z" fill="#FC8650"/>
<path d="M138.128 179.37C136.766 179.426 135.01 178.386 136.007 176.892C136.492 176.232 137.385 176.12 138.123 175.911C139.931 174.908 142.007 174.215 144.095 174.36C147.702 174.213 148.112 177.378 144.648 178.274C142.552 178.921 140.326 179.386 138.128 179.37Z" fill="#FC8650"/>
<path d="M118.353 183.608C116.334 183.461 116.18 181.113 118.039 180.507C119.591 179.528 127.398 178.541 124.965 182.128C123.077 183.436 120.615 183.856 118.353 183.608Z" fill="#FC8650"/>
<path d="M79.46 201.356C77.3145 201.12 73.9402 200.677 73.4083 198.174C73.3626 197.224 74.3322 196.758 75.1573 197.01C76.65 196.082 80.1569 197.464 81.268 198.72C82.5985 200.208 81.2503 201.829 79.46 201.356Z" fill="#FC8650"/>
<path d="M93.392 205.088C89.4342 204.709 88.8801 198.833 92.6361 200.923C93.8635 200.843 94.4441 202.057 95.0659 202.853L95.0335 202.831C95.4033 203.09 95.3178 203.697 94.9274 203.896C94.8006 204.602 94.1317 205.207 93.392 205.088Z" fill="#FC8650"/>
<path d="M120.515 268.091C119.016 268.2 117.42 266.999 118.935 265.678C120.578 264.794 122.732 264.899 124.508 265.351C125.407 265.573 125.657 266.706 125.075 267.371C123.863 268.378 122.006 268.069 120.515 268.091Z" fill="#FC8650"/>
<path d="M136.644 268.378C133.374 268.312 132.453 264.99 135.602 264.735C140.003 264.532 142.163 269.006 136.644 268.378Z" fill="#FC8650"/>
<path d="M129.459 267.667C129.06 267.568 128.548 267.464 128.316 267.095C128.109 266.686 128.507 266.125 128.968 266.282C130.661 267.297 132.652 265.412 130.137 264.662L130.205 264.693C129.519 264.457 129.127 263.844 129.052 263.143C129.038 262.638 128.528 259.24 129.642 260.298C129.705 261.329 129.789 262.412 130.207 263.367C131.933 263.847 133.093 265.849 131.255 267.032C130.978 267.67 130.07 267.755 129.459 267.667Z" fill="#535251"/>
<path d="M129.282 273.64C128.535 273.537 126.98 273.06 127.285 272.076C126.916 271.756 127.044 270.788 127.629 271.201L127.595 271.17C127.579 271.158 127.562 271.148 127.543 271.14C128.234 272.319 130.412 273.399 131.329 271.892C131.476 271.637 131.432 271.238 131.73 271.093C133.11 271.086 131.08 274.078 129.282 273.64Z" fill="#535251"/>
<path d="M117.936 263.452C116.426 263.334 114.479 262.488 113.947 261.009C113.706 259.156 116.667 258.006 118.22 257.97C125.473 258.523 125.542 263.819 117.936 263.452ZM119.908 262.421C120.403 262.366 120.895 262.282 121.381 262.169L121.321 262.182C121.945 262.049 122.781 261.714 122.894 261.011C120.624 259.13 117.111 258.137 114.725 260.369C115.076 260.516 115.268 260.928 115.562 261.167L115.503 261.113C116.613 262.346 118.322 262.575 119.908 262.416V262.421Z" fill="#535251"/>
<path d="M138.55 263.163C136.714 262.916 132.222 262.86 133.151 260.02L133.134 260.059C134.395 257.576 138.369 256.136 140.979 257.042C147.136 259.609 143.305 263.072 138.55 263.163ZM139.902 262.041C141.052 261.87 143.027 261.275 143.255 260.059C141.841 258.439 139.701 257.384 137.572 258.206L137.647 258.19C136.306 258.617 134.917 259.189 133.9 260.19C135.052 261.914 137.959 262.073 139.902 262.041Z" fill="#535251"/>
<path d="M119.118 262.777C116.746 262.62 116.342 259.859 118.788 259.516C120.862 259.42 121.431 262.779 119.118 262.777ZM119.274 261.584C119.343 261.567 119.41 261.54 119.471 261.504C119.433 261.439 119.388 261.376 119.339 261.317C119.26 261.386 119.157 261.421 119.053 261.417C118.948 261.412 118.849 261.368 118.776 261.294C118.822 261.368 118.853 261.452 118.864 261.538C118.998 261.574 119.136 261.59 119.274 261.584Z" fill="#535251"/>
<path d="M138.864 262.655C136.393 262.508 136.359 258.349 138.979 258.632C141.309 258.893 141.428 262.901 138.864 262.655Z" fill="#535251"/>
<path d="M118.502 262.142C118.361 262.091 118.238 262.001 118.146 261.883C118.054 261.765 117.997 261.624 117.982 261.475C117.967 261.327 117.993 261.177 118.059 261.042C118.125 260.908 118.227 260.795 118.355 260.716C119.806 258.755 120.911 262.807 118.502 262.142Z" fill="#535251"/>
<path d="M114.887 258.387C113.967 257.77 117.335 256.598 117.854 256.758C117.897 256.749 117.942 256.751 117.984 256.763C118.027 256.775 118.066 256.797 118.098 256.827C118.13 256.857 118.154 256.895 118.169 256.936C118.184 256.978 118.188 257.022 118.182 257.066C118.157 257.423 117.771 257.377 117.509 257.392H117.549C116.765 257.406 116.062 257.698 115.403 258.105L115.434 258.088C115.237 258.158 115.101 258.399 114.887 258.387Z" fill="#535251"/>
<path d="M136.327 256.631C136.731 255.768 138.306 255.858 139.172 255.6C139.651 255.612 139.43 256.297 139.015 256.189H139.026C138.522 256.237 138.017 256.295 137.522 256.391H137.492L137.345 256.427H137.366C137.204 256.467 137.045 256.517 136.888 256.574L136.915 256.564C136.731 256.631 136.446 256.916 136.327 256.631Z" fill="#535251"/>
<path d="M113.071 255.031C111.597 253.188 116.097 252.518 117.298 252.586C118.71 252.839 123.136 252.586 123.459 254.193C123.09 255.511 120.75 254.352 119.712 254.589C118.154 254.541 116.576 254.491 115.032 254.737C114.388 254.8 113.678 255.452 113.071 255.031Z" fill="#535251"/>
<path d="M132.957 253.907C130.495 251.269 139.799 250.83 141.129 251.619C143.161 252.07 143.305 254.237 140.904 253.317H140.924C140.26 253.091 139.561 253.227 138.876 253.261H138.95L138.68 253.28H138.754C136.819 253.401 134.892 253.98 132.957 253.907Z" fill="#535251"/>
<path d="M123.488 265.396C123.499 265.041 124.038 265.015 124.004 265.396C123.994 265.754 123.454 265.781 123.488 265.396Z" fill="#535251"/>
<path d="M124.582 264.103C124.596 263.586 125.379 263.548 125.33 264.103C125.315 264.622 124.533 264.662 124.582 264.103Z" fill="#535251"/>
<path d="M124.941 265.121C124.957 264.559 125.812 264.516 125.759 265.121C125.743 265.689 124.888 265.731 124.941 265.121Z" fill="#535251"/>
<path d="M126.721 264.429C126.739 263.814 127.67 263.77 127.605 264.429C127.588 265.046 126.658 265.092 126.721 264.429Z" fill="#535251"/>
<path d="M132.431 263.538C132.447 262.998 133.263 262.957 133.213 263.538C133.205 264.08 132.381 264.12 132.431 263.538Z" fill="#535251"/>
<path d="M132.743 264.831C132.757 264.389 133.42 264.359 133.378 264.831C133.365 265.271 132.702 265.304 132.743 264.831Z" fill="#535251"/>
<path d="M134.889 264.521C134.889 264.349 135.154 264.336 135.139 264.521C135.125 264.707 134.874 264.707 134.889 264.521Z" fill="#535251"/>
<path d="M136.353 264.956C136.371 264.367 137.26 264.324 137.205 264.956C137.183 265.547 136.299 265.591 136.353 264.956Z" fill="#535251"/>
<path d="M134.419 265.548C134.419 265.437 134.59 265.428 134.58 265.548C134.57 265.667 134.41 265.666 134.419 265.548Z" fill="#535251"/>
<path d="M122.324 263.492C122.214 263.262 122.423 263.084 122.619 263.001L122.588 263.019C122.74 262.935 122.888 262.842 123.03 262.741C123.117 262.673 123.198 262.602 123.278 262.527L123.255 262.551C123.507 262.383 123.662 261.854 124.003 261.927C124.036 261.948 124.063 261.978 124.079 262.014C124.096 262.049 124.103 262.089 124.097 262.128C124.092 262.167 124.076 262.204 124.051 262.234C124.025 262.264 123.992 262.286 123.954 262.297C123.644 262.698 122.838 263.896 122.324 263.492Z" fill="#535251"/>
<path d="M186.534 346.532C185.511 344.112 185.677 341.12 184.668 338.589C183.557 335.005 181.891 331.622 180.29 328.235C176.325 319.738 172.162 311.264 166.51 303.735C160.268 295.292 150.499 291.179 141.608 286.23C139.648 286.596 140.672 279.103 140.469 277.704C140.543 276.008 144.632 275.346 145.268 272.824C146.186 270.32 145.942 267.58 146.121 264.959C146.431 259.788 146.563 254.61 146.802 249.435C145.797 249.273 145.284 248.237 144.863 247.416C142.473 248.935 139.231 248.946 136.913 247.269C134.715 250.008 129.693 250.657 127.483 247.626C124.439 249.383 120.012 250.579 116.992 248.205C115.643 250.314 112.409 251.151 110.389 249.53C110.992 252.545 111.396 255.596 111.599 258.664C111.599 258.633 111.599 258.602 111.587 258.571C112.223 263.58 112.505 268.81 114.297 273.554C115.212 275.637 117.569 275.744 118.761 277.189C119.771 278.025 119.15 280.025 119.401 281.241V281.229C119.153 282.331 120.367 286.747 118.598 286.422C114.235 289.147 109.058 290.17 104.599 292.712L104.625 292.698L104.548 292.742H104.558C99.5483 295.662 94.9657 299.352 91.3645 303.916C90.2808 305.154 89.2754 306.459 88.3541 307.823C88.0918 308.341 87.4951 309.573 86.9012 308.707C87.333 305.613 93.7398 299.174 96.2757 296.949C96.6882 297.019 97.064 296.655 97.1126 296.261C98.3415 295.267 99.6308 294.346 100.922 293.43C101.262 293.696 101.688 293.303 101.669 292.93C104.358 291.201 107.068 289.471 110.091 288.433L110.066 288.445L110.046 288.456C111.827 287.72 113.608 286.999 115.427 286.363C116.252 286.163 117.102 285.725 117.966 285.498C117.932 283.199 117.966 280.862 117.916 278.585C117.916 278.605 117.916 278.626 117.916 278.648C117.929 278.276 117.915 277.904 117.873 277.534C117.207 277.047 116.37 276.852 115.686 276.384C115.686 276.37 115.686 276.359 115.686 276.345C115.686 276.332 115.686 276.345 115.686 276.345C115.685 276.342 115.685 276.339 115.686 276.336C115.684 276.325 115.681 276.313 115.677 276.301C115.665 276.218 115.635 276.14 115.588 276.07C115.542 276.001 115.48 275.943 115.408 275.9C115.336 275.858 115.256 275.832 115.172 275.825C115.089 275.818 115.005 275.83 114.927 275.859C112.894 274.299 112.465 271.708 112.03 269.342C108.568 269.289 106.682 265.074 107.86 262.103C105.264 260.335 105.037 256.222 106.985 253.925C104.37 251.879 105.115 248.179 107.149 246.014C106.631 244.035 106.945 241.776 108.112 240.071C108.3 240.035 108.467 239.931 108.582 239.778C108.696 239.625 108.75 239.435 108.731 239.245C109.605 238.224 110.916 237.427 112.301 237.587C114.719 234.091 122.301 228.838 126.279 232.145C130.378 230.022 137.566 228.213 140.381 233.066C144.057 233.259 149.843 236.004 147.969 240.487C151.23 242.209 152.923 246.854 150.52 249.931C151.161 251.777 151.193 253.773 150.257 255.529C150.176 256.976 150.064 258.443 149.565 259.819C154.133 261.759 150.514 265.806 147.552 267.166C147.666 271.746 146.531 275.678 141.861 277.357C141.903 279.819 141.795 282.301 142.355 284.74C149.991 288.648 158.213 291.97 164.197 298.352C168.601 302.521 171.614 307.868 174.631 313.067C178.588 319.924 181.895 327.179 184.954 334.474C186.068 337.147 186.623 340.005 186.996 342.864C186.921 343.77 188.258 346.865 186.534 346.532ZM110.455 261.298C107.339 262.385 109.076 266.967 111.634 267.667C111.13 265.548 110.955 263.371 110.667 261.217L110.455 261.298ZM147.823 260.78C147.75 262.459 147.64 264.136 147.589 265.815C148.448 265.475 149.247 264.881 149.718 264.077L149.668 264.164C149.759 264.007 149.852 263.851 149.944 263.694L149.891 263.785C151.094 262.176 148.955 261.261 147.828 260.529C147.831 260.609 147.828 260.697 147.823 260.78Z" fill="#535251"/>
<path d="M54.6374 341.973C54.7695 341.856 54.8669 341.705 54.9189 341.537C54.9709 341.368 54.9755 341.189 54.9321 341.018C55.3506 340.961 55.6541 340.547 55.6836 340.145C59.0211 338.458 62.363 336.777 65.6607 334.999L65.6459 335.008C68.9009 333.061 72.2428 331.198 75.1854 328.797C76.7473 327.628 78.0779 326.145 79.6781 325.037C79.8696 324.742 80.1281 324.496 80.4326 324.32C80.7371 324.144 81.0788 324.042 81.4301 324.023L81.3446 324.044C82.0721 323.898 82.7673 323.623 83.3972 323.231L83.4326 323.212L83.4621 323.196L83.4326 323.212C84.8309 322.565 85.1404 320.818 86.7863 322.303L86.773 322.294C87.7779 322.829 88.4646 323.745 89.3723 324.393C89.3001 322.792 86.745 321.447 87.6925 319.896C89.3605 319.306 90.8266 321.537 92.6213 321.199C92.5636 321.026 92.486 320.859 92.39 320.703C92.3892 320.706 92.3892 320.71 92.39 320.713C91.5486 319.272 89.7804 318.819 88.5501 317.851C88.1949 314.854 92.9823 319.692 94.3468 318.131C93.4701 316.463 91.6533 315.373 90.0206 314.521H90.0339C89.2971 314.349 88.3482 313.523 89.4666 313.082C90.918 312.82 92.2662 313.789 93.6749 313.621C89.608 308.748 82.659 313.268 77.879 314.728L77.985 314.685C69.0939 318.571 59.9125 322.088 50.351 323.882C50.2655 323.531 50.2552 323.064 49.9089 322.866C57.4606 320.989 64.9062 318.341 72.0292 315.417H72.0188C76.5543 313.577 81.075 311.364 85.8698 310.184C92.3664 308.037 98.5036 315.292 92.446 314.732C94.7933 316.058 97.2319 319.519 92.6921 319.314C95.4328 322.648 91.6149 322.936 89.2706 321.524C90.0177 322.521 91.4617 325.427 89.3295 325.575C87.943 325.019 86.9631 323.732 85.5397 323.182C84.3358 324.445 82.6516 325.189 80.9468 325.464C79.4615 327.309 77.8392 329.063 75.9708 330.526C70.4319 334.666 64.4775 337.459 58.2328 340.544C57.1335 341.058 55.9341 342.251 54.6374 341.973Z" fill="#535251"/>
<path d="M86.5298 310.865C86.4499 310.85 86.375 310.815 86.312 310.763C86.2489 310.712 86.1997 310.646 86.1688 310.57C86.0939 310.537 86.0285 310.486 85.9783 310.421C85.9282 310.356 85.8949 310.28 85.8815 310.199C85.8019 309.77 86.1585 309.418 86.3618 309.065C87.0986 307.876 87.9827 306.867 88.6752 305.651C88.7333 305.553 88.8264 305.481 88.9357 305.449C89.0451 305.416 89.1626 305.427 89.2646 305.478C89.9365 306.167 88.6634 307.098 88.4424 307.817L88.4793 307.754C87.7808 308.476 87.4714 310.799 86.5298 310.865Z" fill="#535251"/>
<path d="M77.5503 356.218C70.8754 356.9 69.925 348.768 71.4383 343.923C71.8243 343.656 72.0174 343.08 71.733 342.683C72.6904 339.087 73.8816 335.559 75.2988 332.118C75.8779 330.968 76.5204 328.667 77.7272 328.181C78.1044 328.257 78.1515 328.821 77.8583 329.028C77.4709 329.847 77.1492 330.695 76.8961 331.565C75.5228 337.225 67.9711 351.423 75.4786 354.722L75.3931 354.699C78.5096 355.524 81.5023 354.059 84.1148 352.49L84.0352 352.537C92.8306 347.696 100.235 339.082 110.706 338.268C109.27 337.174 107.377 337.475 105.814 337.029C104.888 335.168 109.033 335.289 110.118 335.09C110.133 335.091 110.149 335.091 110.165 335.09H110.172C109.338 334.747 108.433 334.621 107.541 334.535H107.551C106.789 334.481 105.112 334.534 105.753 333.325C106.62 332.534 107.956 332.388 109.049 332.027L108.933 331.995L109.004 332.014C107.633 331.519 106.133 331.905 104.781 331.619C103.855 330.424 105.787 330.236 106.565 330.012C104.125 329.881 102.131 331.447 99.9461 332.251C97.5163 333.086 94.9922 333.661 92.639 334.717C92.3767 335.491 91.1139 335.413 90.47 335.829H90.4789C87.1473 337.233 84.0293 339.157 81.1678 341.358C80.5136 341.69 79.9757 342.935 79.1712 342.563C77.2232 340.766 91.808 333.247 93.5938 332.693C95.8453 331.809 98.1956 331.271 100.477 330.461C101.701 329.925 102.663 329.356 104.048 329.068C105.151 328.592 110.287 328.618 108.159 330.628C111.158 331.198 111.778 332.608 108.386 333.374C109.612 333.683 111.809 333.963 111.628 335.594C111.314 336.4 110.155 336.117 109.462 336.33C110.658 336.772 112.783 337.899 111.192 339.204C110.071 339.916 108.54 339.794 107.286 340.261C105.687 340.61 104.191 341.473 102.702 342.138C102.541 341.843 102.249 342.148 102.239 342.379C95.1882 346.151 85.1227 355.524 77.5503 356.218Z" fill="#535251"/>
<path d="M92.1499 333.937C91.2378 333.053 93.9814 330.299 94.397 329.236C96.1195 326.845 97.2924 323.988 99.2271 321.793C99.3347 321.627 99.4172 321.432 99.5866 321.32C99.6692 321.846 99.7473 322.374 99.8091 322.903C98.4108 325.204 96.9712 327.527 95.4977 329.768C94.9319 330.553 92.9529 334.362 92.1499 333.937Z" fill="#535251"/>
<path d="M96.8179 345.131C95.6243 343.766 95.0069 341.853 94.1729 340.223C93.3551 338.455 92.1778 336.87 91.4012 335.086C91.0049 334.063 92.611 333.101 93.0295 334.305C94.0285 337.152 95.5241 339.797 96.8296 342.508C96.8149 342.48 96.7987 342.452 96.7825 342.425C97.2407 343.144 98.4652 345.17 96.8179 345.131Z" fill="#535251"/>
<path d="M178.521 352.5C172.795 351.576 169.851 345.477 166.271 341.501C166.277 341.392 166.251 341.284 166.196 341.189C166.142 341.094 166.061 341.018 165.963 340.968C165.963 340.93 165.953 340.893 165.935 340.86C165.917 340.826 165.891 340.798 165.86 340.777C165.828 340.756 165.792 340.742 165.755 340.738C165.717 340.734 165.679 340.739 165.644 340.753C164.094 339.032 162.549 336.952 160.47 335.833C159.393 334.991 157.803 335.096 156.873 334.085C155.969 332.394 158.208 331.837 159.515 331.842C158.524 331.322 157.227 331.105 156.421 330.323C156.126 328.555 159.698 328.822 160.793 329.188C159.68 328.256 158.164 327.863 157.312 326.638C157.239 324.253 161.073 326.026 162.218 326.606C161.549 325.629 160.321 324.772 160.318 323.489C160.475 322.357 161.584 321.534 162.707 321.768C164.033 322.011 164.953 323.103 166.105 323.699C166.13 323.809 166.196 323.904 166.29 323.967C166.383 324.029 166.497 324.054 166.607 324.035C169.392 325.793 182.926 335.165 181.72 338.315C180.924 339.129 180.358 337.902 179.919 337.343C178.83 335.961 177.641 334.661 176.363 333.452C173.17 330.819 169.895 328.275 166.507 325.893C165.004 325.021 163.868 323.196 162.119 322.919H162.196C162.075 322.919 161.956 322.945 161.846 322.994L161.919 322.966C160.457 323.601 163.457 325.659 163.666 326.686C164.141 327.253 164.596 328.836 163.372 328.627C161.923 327.838 160.501 326.737 158.823 326.547C159.614 327.094 165.521 330.477 162.38 330.914C160.998 330.597 159.672 329.762 158.211 330.058L158.82 330.324L158.752 330.295C160.211 331.127 162.141 331.378 163.345 332.555C163.579 333.032 163.153 333.64 162.619 333.527C161.164 333.4 159.707 332.854 158.253 333.262C163.75 334.261 166.896 339.574 170.369 343.462L170.329 343.411L170.388 343.486C170.397 343.497 170.406 343.511 170.416 343.523L170.394 343.495C172.494 345.723 174.278 348.581 177.096 349.91C180.927 351.756 187.325 349.523 186.507 344.58C186.463 343.991 187.369 343.888 187.32 344.532C187.304 344.662 187.319 344.794 187.365 344.918C189.028 349.84 182.814 353.39 178.521 352.5Z" fill="#535251"/>
<path d="M183.833 351.247C182.882 350.895 183.749 349.997 184.164 349.567C186.158 347.322 185.932 344.231 185.806 341.429C185.881 340.674 185.364 339.504 185.912 338.95C185.942 338.947 185.973 338.95 186.002 338.959C186.031 338.969 186.058 338.984 186.081 339.005C186.104 339.026 186.122 339.051 186.134 339.079C186.146 339.107 186.152 339.137 186.152 339.168C186.177 340.46 186.556 341.711 186.783 342.975C187.429 345.906 186.964 350.015 183.833 351.247Z" fill="#535251"/>
<path d="M165.554 339.25C166.812 337.511 168.259 335.881 169.6 334.195C170.347 333.424 172.856 328.923 173.891 330.775C174.11 331.404 173.528 331.773 173.135 332.141C172.201 332.989 171.455 334.015 170.668 334.994C170.014 335.547 165.583 342.26 165.554 339.25Z" fill="#535251"/>
<path d="M132.985 317.356C133.524 316.852 134.164 316.472 134.743 316.008L134.691 316.047C139.744 312.232 145.423 309.284 151.33 307.036L151.37 307.021C151.71 306.886 152.046 306.75 152.387 306.616L152.31 306.647C154.155 305.94 156.078 305.469 157.992 304.982L157.915 305C158.301 304.91 158.687 304.823 159.075 304.735L158.997 304.753L159.172 304.711L159.097 304.729L159.287 304.685H159.266C163.439 303.908 163.905 302.017 164.319 307.189C164.01 307.189 163.702 307.189 163.392 307.207C163.298 306.422 163.218 305.632 163.058 304.857C159.592 305.888 156.011 306.569 152.611 307.82L152.636 307.809C145.943 310.532 139.264 313.596 133.207 317.516C133.147 317.446 133.071 317.39 132.985 317.356Z" fill="#535251"/>
<path d="M132.762 317.309C129.97 316.045 126.952 315.426 124.278 313.835C120.692 311.856 116.653 310.919 112.785 309.66L112.867 309.68C109.478 309.051 106.114 307.54 102.64 307.72C102.492 308.309 102.373 308.91 102.24 309.504C102.047 309.493 101.854 309.485 101.661 309.486C101.798 308.627 101.439 307.335 102.259 306.786C104.764 306.145 107.37 307.188 109.829 307.65C117.177 309.129 124.194 311.935 130.536 315.93H130.527L130.658 316.018L130.644 316.008L130.735 316.07C131.394 316.525 132.117 316.875 132.783 317.319L132.762 317.309Z" fill="#535251"/>
<path d="M133.023 317.375C133.703 315.967 134.777 314.782 135.885 313.692L135.876 313.699C141.133 308.101 148.078 304.183 155.543 302.447C157.725 301.858 160.009 301.531 162.215 301.152C162.972 301.647 162.529 302.835 162.741 303.605C162.82 304.015 162.342 304.47 161.966 304.18C161.596 303.682 161.789 302.932 161.671 302.34C160.105 302.82 158.477 302.972 156.885 303.337H156.894C155.715 303.623 154.561 304.041 153.358 304.277C145.463 306.6 138.751 311.625 133.188 317.525C133.144 317.465 133.088 317.414 133.023 317.375Z" fill="#535251"/>
<path d="M131.893 316.871C130.586 316.226 129.033 316.227 127.882 315.29L127.897 315.301L127.816 315.245L127.848 315.268C125.059 313.173 122.321 310.996 119.196 309.412L119.259 309.442C116.074 308.116 113.04 306.463 109.821 305.212C109.831 305.217 109.84 305.222 109.849 305.226C108.681 304.71 107.384 304.566 106.126 304.424C106.095 305.258 106.399 306.407 105.781 307.055C104.965 307.203 105.426 305.877 105.236 305.398C103.217 299.48 117.666 307.926 119.691 308.456L119.628 308.427L119.838 308.521L119.775 308.493C122.996 310.114 125.827 312.307 128.669 314.498L128.61 314.459L128.931 314.675L128.874 314.638C129.898 315.36 130.863 316.165 131.899 316.874L131.893 316.871Z" fill="#535251"/>
<path d="M132.762 317.309C129.533 315.802 127.744 312.237 124.909 310.09C120.258 306.606 114.943 304.018 109.197 303.01C108.859 303.477 108.607 304.541 107.849 304.208C107.536 304.034 107.471 303.593 107.633 303.296C108.075 302.679 108.183 301.4 109.142 301.444C110.545 301.774 111.98 301.965 113.346 302.441C118.912 304.159 124.443 306.974 128.333 311.384C130.038 313.151 131.896 315.036 132.866 317.315C132.832 317.31 132.797 317.308 132.762 317.309Z" fill="#535251"/>
<path d="M132.829 317.102C134.694 309.477 144.764 304.483 151.511 301.713C154.1 300.877 156.691 299.946 159.296 299.2C160.327 299.289 159.931 300.95 160.249 301.683C160.299 302.145 159.741 302.617 159.331 302.292C158.963 301.818 159.087 301.081 158.948 300.504C152.712 302.608 146.491 304.954 141.051 308.739L141.086 308.711C138.381 310.921 135.598 313.229 133.719 316.21L133.748 316.16L133.558 316.495C133.707 316.784 133.068 317.487 132.829 317.102Z" fill="#535251"/>
<path d="M118.057 283.148C118.291 281.428 122.691 282.487 124.073 282.141C129.792 282.167 135.714 282.014 141.347 282.536C142.379 284.465 136.685 283.673 135.662 283.875C133.314 283.888 130.968 283.913 128.619 283.86C125.869 283.799 123.114 284.056 120.367 283.85C119.569 283.911 118.017 284.442 118.057 283.148Z" fill="#535251"/>
<path d="M87.165 204.078C86.5092 203.636 85.3968 203.35 85.2494 202.483C85.1905 201.893 85.9036 201.272 86.4282 201.696C87.0692 202.269 87.7897 202.979 88.6989 202.997C87.5422 200.214 87.3639 196.979 88.3806 194.127C88.4454 193.907 88.6945 193.28 88.9405 193.663C88.3629 196.071 88.8285 198.728 89.5845 201.071C90.7913 203.384 89.8615 205.289 87.165 204.078Z" fill="#535251"/>
<path d="M85.6871 210.572C82.6207 210.528 82.5397 206.64 83.3133 207.971C83.9027 209.372 86.2338 210.033 87.3389 208.915C87.3775 208.866 87.4258 208.827 87.4808 208.798C87.5357 208.769 87.5961 208.753 87.6579 208.749C87.7197 208.745 87.7816 208.755 87.8396 208.776C87.8976 208.798 87.9504 208.832 87.9946 208.875C88.4926 209.981 86.5609 210.668 85.6871 210.572Z" fill="#535251"/>
<path d="M75.3857 198.39C75.1382 198.26 75.2796 197.814 75.5596 197.857C76.1299 197.782 76.9418 196.722 77.4015 197.268C77.593 197.763 75.7703 198.44 75.3857 198.39Z" fill="#535251"/>
<path d="M77.6963 199.177C77.739 198.625 78.6349 198.494 78.9782 198.084C79.1845 197.898 79.4206 197.749 79.6767 197.642C80.1187 197.518 80.2292 198.217 79.855 198.365C79.2877 198.505 78.1324 199.601 77.6963 199.177Z" fill="#535251"/>
<path d="M81.0706 199.868C80.9439 199.48 81.4832 199.309 81.66 199.035C81.8854 198.819 82.2273 198.281 82.5441 198.666C82.5997 198.758 82.6178 198.868 82.5948 198.973C82.5718 199.078 82.5093 199.171 82.4203 199.231C82.0151 199.386 81.4758 200.246 81.0706 199.868Z" fill="#535251"/>
<path d="M91.4278 203.407C90.585 202.742 92.4725 202.1 92.8527 201.664C93.3331 201.369 93.6263 202.147 93.199 202.389C92.6052 202.671 92.0467 203.302 91.4278 203.407Z" fill="#535251"/>
<path d="M78.8661 194.877C76.5586 194.572 74.0891 193.302 73.0664 191.125C72.2678 190.241 73.2978 189.514 74.011 189.062C75.452 188.147 77.2733 188.168 78.9059 188.42C80.7449 189.009 81.9576 190.787 82.9286 192.364C83.3412 193.594 81.7174 194.151 80.8436 194.534L80.9084 194.507C80.2531 194.744 79.5628 194.869 78.8661 194.877ZM79.1446 193.846C80.0889 193.775 80.9896 193.421 81.7277 192.828C80.2778 189.896 77.1024 188.423 74.0301 189.822C74.4884 190.621 74.705 191.617 75.5596 192.109L75.4874 192.062C76.622 192.811 77.7124 193.795 79.1446 193.847V193.846Z" fill="#535251"/>
<path d="M78.4463 194.196C77.4811 193.977 76.0076 193.737 76.0887 192.449C76.32 190.239 79.3613 191.086 79.9345 192.644C80.0199 192.854 80.0425 193.085 79.9997 193.308C79.9568 193.531 79.8504 193.737 79.6931 193.902C79.5358 194.066 79.3344 194.181 79.1132 194.233C78.892 194.285 78.6604 194.273 78.4463 194.196Z" fill="#535251"/>
<path d="M73.1652 189.765C72.9648 189.556 72.8174 189.302 72.6377 189.077L72.6052 189.034L72.6259 189.062C70.8223 187.294 72.3474 186.665 72.4564 187.604C72.7511 188.34 74.257 188.862 73.759 189.723C73.7241 189.767 73.6805 189.803 73.631 189.829C73.5814 189.855 73.527 189.871 73.4712 189.875C73.4153 189.879 73.3593 189.871 73.3066 189.852C73.2539 189.833 73.2058 189.803 73.1652 189.765Z" fill="#535251"/>
<path d="M74.9113 189.102C74.4687 188.52 74.066 187.909 73.7059 187.272C73.4613 187.118 73.6116 186.598 73.924 186.74C74.0846 186.863 74.1657 187.065 74.2998 187.215C74.6357 187.783 75.8366 188.339 75.4299 189.071C75.3996 189.11 75.3614 189.141 75.3179 189.164C75.2744 189.187 75.2265 189.2 75.1776 189.203C75.1286 189.206 75.0795 189.198 75.0336 189.181C74.9877 189.163 74.946 189.137 74.9113 189.102Z" fill="#535251"/>
<path d="M76.8284 189.159C76.6779 188.883 76.5512 188.594 76.4497 188.296L76.4674 188.34C76.3819 187.956 75.3298 186.396 76.2139 186.534L76.1948 186.517C76.2254 186.542 76.2477 186.576 76.2585 186.614C76.2693 186.652 76.2681 186.693 76.2552 186.73C76.5027 187.524 77.8628 188.379 77.3589 189.213C77.3221 189.247 77.2784 189.274 77.2305 189.29C77.1826 189.307 77.1318 189.312 77.0815 189.307C77.0311 189.302 76.9825 189.287 76.9388 189.261C76.8951 189.235 76.8575 189.201 76.8284 189.159Z" fill="#535251"/>
<path d="M85.6885 189.569C85.2184 189.528 85.0239 188.98 84.6644 188.734C84.6865 188.751 84.7071 188.772 84.7278 188.791C82.9021 186.988 80.8362 185.388 78.2753 184.845L78.3298 184.859C76.2301 184.043 73.9211 184.417 71.7978 184.089C71.4471 184.216 71.3557 183.75 71.6313 183.588C71.7683 182.775 72.7894 183.077 73.3759 183.065C77.039 182.566 81.2017 183.769 83.9851 186.203C84.5657 187.119 87.1723 188.283 86.0215 189.467C85.9243 189.536 85.8075 189.572 85.6885 189.569Z" fill="#535251"/>
<path d="M15.0739 252.965C11.6996 248.601 12.647 242.392 14.651 237.627C16.9614 231.651 22.9777 227.349 29.1222 226.007C30.8772 215.795 37.6243 208.787 46.9649 204.812C48.9482 195.611 52.8456 186.508 59.9862 180.13C67.9048 172.994 79.4851 168.835 90.0103 171.76C93.252 172.577 96.2682 174.031 98.4594 176.621C102.006 180.614 104.829 187.859 100.309 192.127C100.351 192.362 100.001 192.459 99.8297 192.527C99.6396 193.351 99.4834 194.18 99.2403 194.987C99.7811 195.033 100.589 194.192 100.93 194.819C101.041 195.743 99.619 195.566 99.0149 195.714L98.7761 196.464C99.4093 196.584 100.063 196.54 100.674 196.335C101.085 196.212 101.349 196.715 101.154 197.047C100.565 197.7 99.3051 197.437 98.5654 197.149L98.5301 197.266C98.5321 197.258 98.5345 197.25 98.5374 197.241L98.5286 197.269C98.5293 197.279 98.5293 197.289 98.5286 197.299C98.5124 197.359 98.4947 197.418 98.4785 197.477V197.458L98.4343 197.613C98.4343 197.601 98.4343 197.589 98.4446 197.576C97.366 201.776 96.4642 206.026 94.9377 210.098C93.7088 213.681 92.166 218.722 87.498 218.417C87.442 219.475 87.2033 220.519 87.1473 221.574V221.472C87.0161 223.769 86.7288 226.207 85.8093 228.317C87.7101 229.068 89.5859 229.861 91.4366 230.731L91.3026 230.672C92.4327 231.238 93.7132 231.556 94.7491 232.281C94.1258 232.649 94.2908 233.505 94.1597 234.121C89.9234 232.543 81.0455 229.626 78.5022 226.125C77.6948 225.786 79.5337 214.634 80.3898 214.501C81.3196 214.217 82.0416 215.238 82.8623 215.532C85.0947 216.269 87.8575 216.986 90.0206 215.73C92.86 212.367 93.6631 207.614 95.0497 203.511C94.4868 203.601 93.6867 204.666 93.2225 204.182C93.1861 204.099 93.1793 204.007 93.2032 203.92C93.2271 203.833 93.2802 203.757 93.3537 203.704C93.9431 203.383 94.5723 202.365 95.2825 202.613C95.5772 201.4 95.8454 200.177 96.1386 198.962C93.8237 199.908 90.4273 198.399 90.1355 195.807C91.6238 193.676 95.3252 192.595 97.4087 194.572C97.6946 193.769 97.8773 192.937 98.1455 192.128C97.114 192.121 96.1106 191.515 95.0349 191.528C93.7515 191.325 92.3414 191.612 91.1213 191.452C90.9253 191.042 91.4691 190.927 91.7284 190.773C93.7235 189.669 96.1931 189.847 98.2722 190.606L98.1941 190.587C98.3529 190.626 98.5089 190.675 98.6612 190.734C98.9957 189.865 99.2948 188.981 99.6558 188.122C96.7766 184.519 93.5128 181.212 90.5201 177.742C86.4533 179.893 81.7336 180.052 77.2822 180.82C73.149 181.536 69.0645 182.511 64.9622 183.386C64.3021 184.177 61.501 196.536 60.1896 193.077C57.496 193.329 52.934 196.278 56.8256 198.514C57.8098 199.263 60.331 198.728 59.942 200.513C58.3212 218.006 60.1409 225.528 42.6004 234.517L42.6239 234.504C41.3243 235.139 40.119 236.203 38.7221 236.54L38.6558 236.57C38.09 235.585 36.7093 236.44 36.8743 237.408C36.5413 237.555 36.2113 237.683 35.8797 237.813H35.8945L35.8134 237.844L35.7839 237.856C27.0284 240.914 23.2533 246.569 16.7979 252.506C16.4531 251.877 15.8563 252.991 15.5793 253.243C15.4796 253.237 15.3824 253.209 15.2949 253.161C15.2075 253.113 15.1319 253.046 15.0739 252.965ZM94.9716 195.989C95.252 196.15 95.4743 196.395 95.6067 196.689C95.739 196.984 95.7746 197.313 95.7083 197.629C96.0149 197.554 96.305 197.423 96.5644 197.243C96.6794 196.824 96.7943 196.408 96.9254 195.994C95.3665 194.597 93.0457 195.063 91.3998 196.055C91.7494 196.547 92.2124 196.947 92.7495 197.221C92.7544 197.09 92.7889 196.961 92.8504 196.846C92.9119 196.73 92.9988 196.629 93.1046 196.552C93.4303 195.873 94.3321 195.562 94.9716 195.989ZM100.424 186.724H100.44C100.329 186.599 100.223 186.474 100.119 186.35C100.216 186.474 100.317 186.599 100.418 186.724H100.424Z" fill="#535251"/>
<path d="M134.531 358.904C129.973 355.986 124.176 355.516 118.948 354.474C115.478 354.116 112.039 353.52 108.565 353.179C106.735 353.001 104.763 353.458 103.018 352.805C101.891 352.31 102.333 347.472 102.159 346.158C102.336 345.589 101.736 341.444 102.709 342.151C104.19 341.45 105.691 340.617 107.287 340.259C108.537 339.79 110.072 339.915 111.193 339.203C112.783 337.898 110.66 336.768 109.463 336.329C110.162 336.107 111.299 336.403 111.63 335.592C111.805 333.962 109.612 333.677 108.388 333.372C111.786 332.597 111.155 331.193 108.162 330.623C110.297 328.605 105.146 328.589 104.051 329.06C102.666 329.355 101.703 329.918 100.48 330.454C98.2 331.264 95.8468 331.795 93.5968 332.686C95.7452 329.57 97.7963 326.154 99.8091 322.904L99.8327 323.087C99.2315 319.393 99.0959 315.66 98.841 311.933C98.841 311.344 98.5625 310.419 99.1799 310.071C103.088 308.344 109.334 310.469 113.429 311.275C117.585 312.027 121.574 313.325 125.485 314.902C128.031 315.828 130.854 316.171 133.197 317.524C136.174 315.067 139.933 314.046 143.391 312.487L143.488 312.449H143.478L143.727 312.351H143.719L144.21 312.16L144.113 312.198C145.57 311.633 146.997 310.983 148.454 310.414H148.446L148.582 310.361L148.53 310.38L148.678 310.323L148.653 310.332C149.773 309.879 150.922 309.503 152.092 309.205L151.993 309.228C154.174 308.914 164.076 306.258 165.206 307.581C166.061 307.346 166.532 307.729 166.518 308.612C166.728 310.896 166.759 313.187 166.793 315.478C166.708 316.192 167.928 326.054 166.121 323.689C164.969 323.1 164.048 322.002 162.732 321.759C161.609 321.526 160.5 322.348 160.344 323.481C160.344 324.766 161.574 325.62 162.243 326.599C161.102 326.026 157.26 324.242 157.336 326.633C158.189 327.858 159.704 328.253 160.817 329.183C159.757 328.807 156.101 328.577 156.443 330.318C157.242 331.105 158.538 331.317 159.538 331.837C158.228 331.837 155.991 332.388 156.896 334.082C157.825 335.096 159.417 334.988 160.492 335.83C162.57 336.951 164.116 339.029 165.666 340.75C165.701 340.736 165.739 340.73 165.777 340.734C165.815 340.738 165.852 340.751 165.884 340.772C165.915 340.793 165.942 340.821 165.96 340.855C165.978 340.888 165.988 340.926 165.989 340.964C166.736 341.943 166.121 343.723 166.351 344.941C166.151 346.003 166.983 348.26 165.888 348.8C161.133 348.741 156.664 350.996 151.995 351.849H151.973C148.323 352.751 144.917 354.409 141.424 355.765L141.518 355.726C140.398 356.149 139.308 356.648 138.257 357.22L138.341 357.173L138.021 357.354C137.796 357.485 137.569 357.614 137.342 357.742L137.423 357.696C136.554 357.954 135.316 359.377 134.531 358.904Z" fill="#FC8650"/>
<path d="M132.961 208.796C132.329 205.176 131.765 201.531 131.028 197.934C126.381 198.603 120.771 197.661 118.297 193.22C115.073 187.283 113.84 180.578 111.708 174.223C106.256 174.481 103.014 168.685 104.193 163.797C104.71 161.522 102.998 159.534 103.014 157.265C102.13 151.272 107.227 149.109 109.695 144.581L109.628 144.669C112.03 140.873 115.935 137.759 120.385 136.814C122.582 136.19 124.673 137.462 126.842 137.434C131.061 133.345 137.252 130.941 143.142 132.458C144.698 132.865 146.186 133.71 147.19 134.985C147.926 135.681 147.988 137.062 148.93 137.461C152.261 137.717 156.033 137.314 158.507 140.077C161.846 143.13 161.933 147.773 162.025 151.962C162.785 153.476 164.204 154.625 164.763 156.262C165.719 159.674 165.037 163.386 163.756 166.623C167.242 169.152 164.961 174.671 161.768 176.453C162.007 177.305 162.188 178.171 162.398 179.028C163.92 185.076 165.492 191.117 166.513 197.274C166.478 198.564 168.402 203.158 166.562 203.29C165.429 203.11 165.825 201.416 165.507 200.582C164.914 197.206 164.146 193.862 163.206 190.565C163.218 190.611 163.23 190.655 163.24 190.7C162.744 188.343 161.96 186.067 161.419 183.723L161.454 183.871C161.307 183.281 161.16 182.692 161.012 182.103C161.026 182.153 161.037 182.203 161.049 182.25C160.846 180.448 159.084 176.492 160.486 175.155C165.402 172.68 164.848 166.169 158.571 167.451V167.621V167.585C158.322 170.027 158.891 172.707 157.923 175.005C156.713 176.626 154.729 175.127 154.427 173.554C153.524 171.219 153.557 168.629 153.249 166.167C152.332 160.298 151.628 154.357 150.191 148.594C147.306 148.55 144.561 149.99 141.714 150.416C138.374 150.948 135.055 149.407 131.715 150.223C126.952 151.492 122.682 154.495 117.687 154.864C115.517 155.04 113.29 154.049 111.186 154.88L111.26 154.839C110.733 155.221 110.296 155.713 109.979 156.281C110.477 159.808 110.513 163.399 111.373 166.878C112.419 170.413 113.551 173.913 114.631 177.434C116.681 183.032 117.413 192.589 123.213 195.482C127.928 197.857 132.096 194.883 132.543 197.353C133.484 200.983 134.072 204.709 134.634 208.414C134.743 209.405 133.16 209.952 132.961 208.796Z" fill="#535251"/>
<path d="M128.461 185.371C123.552 184.884 126.678 179.157 126.78 176.165C126.855 174.441 126.329 172.709 126.472 171.009C126.686 170.514 127.33 171.017 127.147 171.411C130.274 177.144 124.819 182.857 128.061 183.828C129.851 184.222 131.946 182.959 132.365 181.156C132.425 180.907 132.648 180.673 132.925 180.721C132.986 180.737 133.044 180.764 133.095 180.802C133.146 180.841 133.188 180.889 133.22 180.944C133.252 180.998 133.273 181.059 133.281 181.122C133.289 181.185 133.284 181.249 133.266 181.31C132.817 183.48 130.733 185.438 128.461 185.371Z" fill="#535251"/>
<path d="M130.66 190.358C129.785 190.254 128.209 189.897 128.302 188.779C128.385 188.601 128.649 188.532 128.763 188.714C128.964 188.969 129.244 189.147 129.559 189.221L129.506 189.208L129.62 189.237H129.596C132.674 189.933 131.541 187.661 132.941 187.584C133.994 188.539 131.858 190.718 130.66 190.358Z" fill="#535251"/>
<path d="M118.131 184.151C118.131 183.804 118.506 180.615 119.059 181.639C118.831 182.148 118.872 182.745 118.833 183.302V183.275C118.833 183.292 118.833 183.308 118.833 183.324V183.311C118.78 183.703 119.047 184.366 118.511 184.489C118.463 184.495 118.415 184.49 118.369 184.476C118.323 184.461 118.28 184.437 118.244 184.405C118.209 184.373 118.18 184.334 118.16 184.29C118.141 184.246 118.13 184.199 118.131 184.151Z" fill="#535251"/>
<path d="M120.499 184.196C120.067 183.902 120.888 180.714 121.372 180.637C121.867 180.785 121.294 181.449 121.359 181.816C121.359 181.801 121.359 181.785 121.359 181.77C121.122 182.39 121.607 184.578 120.499 184.196Z" fill="#535251"/>
<path d="M123.681 183.333C122.936 183.199 123.493 182.241 123.555 181.771C123.832 181.175 123.63 180.326 123.997 179.835C124.626 179.9 124.125 181.619 124.191 182.129C124.135 182.551 124.279 183.289 123.681 183.333Z" fill="#535251"/>
<path d="M137.724 178.868C137.724 178.47 138.353 174.89 138.903 176.31C138.493 177.169 139.05 178.79 138.179 179.285C138.121 179.291 138.063 179.284 138.007 179.266C137.952 179.247 137.901 179.217 137.858 179.178C137.815 179.139 137.781 179.091 137.758 179.037C137.735 178.984 137.723 178.926 137.724 178.868Z" fill="#535251"/>
<path d="M140.759 179.171C139.744 178.877 140.669 177.451 140.759 176.766C140.759 176.78 140.75 176.795 140.747 176.81C140.87 176.531 140.768 176.175 140.958 175.935C141.829 175.372 141.527 176.901 141.466 177.351C141.309 177.935 141.568 179.059 140.759 179.171Z" fill="#535251"/>
<path d="M144.882 178.214C143.862 178.305 144.956 174.948 145.567 175.001C145.833 175.051 145.828 175.443 145.609 175.559C145.6 175.577 145.591 175.596 145.583 175.615C145.583 175.6 145.595 175.587 145.603 175.572C145.14 176.352 145.961 177.931 144.882 178.214Z" fill="#535251"/>
<path d="M137.993 172.785C136.579 172.592 134.839 172.063 134.217 170.653C133.224 169.861 134.491 168.306 135.076 167.57C137.522 164.918 141.64 163.918 145.069 164.909C153.352 168.308 142.551 174.018 137.993 172.785ZM139.306 171.524C142.022 171.44 145.554 170.575 146.805 167.915C146.805 167.929 146.805 167.944 146.805 167.957C144.095 164.675 137.332 166.365 135.058 169.604C135.799 171.176 137.677 171.528 139.306 171.524Z" fill="#535251"/>
<path d="M117.375 177.486C116.143 177.458 114.416 177.044 114.133 175.655C114.036 171.494 119.573 170.117 122.955 170.646C125.516 171.299 126.773 174.034 124.341 175.78C122.389 177.266 119.769 177.582 117.375 177.486ZM119.421 176.013C120.434 175.907 121.456 175.808 122.389 175.372L122.355 175.387L122.441 175.353H122.424L122.508 175.319L122.469 175.335L122.553 175.301H122.538C126.463 173.747 123.12 171.483 120.46 171.994H120.482H120.392H120.415C118.352 172.172 115.897 172.652 114.955 174.727C116.026 175.202 115.732 175.892 117.549 175.942H117.529C118.158 176.009 118.79 176.032 119.421 176.01V176.013Z" fill="#535251"/>
<path d="M119.816 176.334C117.263 176.122 118.708 172.44 120.749 172.89C123.407 173.362 122.183 176.879 119.816 176.334Z" fill="#535251"/>
<path d="M140.526 172.122C138.001 171.845 138.696 168.361 140.848 168.071C144.782 167.771 143.918 172.402 140.526 172.122Z" fill="#535251"/>
<path d="M111.09 170.501C110.546 170.195 110.473 169.47 110.713 168.937C109.714 168.495 111.42 167.579 111.795 167.197L111.736 167.241C114.585 164.958 118.374 164.162 121.951 164.13C123.823 164.286 125.003 166.108 122.76 166.929C120.117 167.763 117.403 168.402 114.803 169.382C113.598 169.744 112.4 170.954 111.09 170.501Z" fill="#535251"/>
<path d="M132.671 163.336C127.219 160.432 147.667 153.01 146.745 158.281C145.95 160.379 139.927 160.603 137.68 161.955H137.694C136.076 162.527 134.432 163.434 132.671 163.336Z" fill="#535251"/>
<path d="M88.4234 230.357C87.473 228.963 92.085 223.707 93.3817 222.806C102.575 215.524 114.7 214.243 125.226 209.694L125.078 209.749C127.219 208.782 129.578 208.522 131.809 207.86C132.399 207.73 132.782 207.163 133.378 207.124C134.299 207.124 134.557 208.407 133.968 208.986C132.475 210.303 130.325 210.354 128.507 210.967C126.316 211.536 124.234 212.44 122.103 213.205C110.603 217.624 96.8415 219.373 88.9612 229.852C89.1027 230.216 88.7476 230.474 88.4234 230.357Z" fill="#535251"/>
<path d="M233.498 333.964C233.319 319.999 232.012 305.532 229.896 291.537C228.116 277.933 226.065 264.333 222.802 250.995C220.255 240.8 217.705 230.031 211.318 221.478C208.008 218.225 203.554 216.396 199.31 214.678C192.827 211.87 185.938 210.369 179.377 207.813C175.859 206.443 172.272 205.255 168.815 203.728C167.377 203.213 165.795 202.234 165.965 200.487C165.933 200.137 166.273 199.396 166.599 199.953C166.607 201.561 168.308 201.886 169.546 202.231C171.448 202.755 173.313 203.396 175.195 203.988C181.089 206.077 186.936 208.261 192.967 209.936C201.018 213.303 211.238 215.345 215.501 223.819C218.282 229.094 220.476 234.72 222.157 240.432C227.64 260.467 230.576 281.049 232.894 301.66C232.894 301.619 232.885 301.579 232.881 301.537C233.086 303.844 236.879 336.607 233.498 333.964Z" fill="#535251"/>
<path d="M190.101 340.716C189.127 340.491 186.588 340.76 186.145 339.857C186.081 339.452 186.548 338.86 186.976 339.102C187.577 339.004 188.185 338.972 188.792 338.931C188.757 338.931 188.722 338.931 188.688 338.939C190.014 338.863 191.321 338.736 192.637 338.623H192.616C203.424 336.827 214.58 338.341 225.234 336.049L225.086 336.083C227.522 335.367 230.406 335.666 232.435 333.942L232.346 334.007C232.816 333.633 233.005 333.045 233.155 332.485C233.493 331.276 235.287 331.703 234.962 332.954C233.986 337.643 228.437 337.637 224.687 338.552C214.803 340.467 204.606 339.455 194.638 340.734L194.785 340.722C193.226 340.848 191.66 340.846 190.101 340.716Z" fill="#535251"/>
<path d="M175.755 317.499C175.518 316.762 176.07 316.001 176.823 315.929L176.763 315.942C184.764 313.804 193.027 312.571 201.223 311.485C199.403 299.612 196.827 287.87 195.202 275.964C195.202 274.536 193.46 267.101 194.996 266.944C195.451 266.892 195.715 267.386 195.56 267.777C198.693 282.429 201.352 297.17 203.539 312.002C203.801 314.721 199.216 313.554 197.511 314.307C190.67 315.543 183.66 316.024 176.994 318.057L177.032 318.048C176.525 318.256 175.927 318.063 175.755 317.499Z" fill="#535251"/>
<path d="M196.271 313.113C195.167 311.874 195.744 308.525 195.386 306.814C194.572 299.121 194.601 291.358 194.218 283.635C194.218 280.495 193.811 277.357 193.945 274.224C194.24 272.951 193.741 268.696 195.011 268.331C195.369 268.427 195.305 268.911 195.413 269.193C195.413 269.178 195.413 269.165 195.403 269.152C195.445 269.465 195.918 270.33 195.289 270.24C196.558 282.133 196.468 294.106 197.407 306.018L197.389 305.858C197.582 307.493 197.536 309.143 197.684 310.782C197.934 311.787 197.732 313.676 196.271 313.113Z" fill="#535251"/>
<path d="M197.25 277.645C196.945 277.602 196.609 277.645 196.313 277.586C195.134 276.522 198.24 276.035 198.859 275.625L198.761 275.663C205.436 272.987 212.569 271.662 219.491 269.78C221.407 269.248 223.353 268.835 225.272 268.306C226.166 268.019 227.68 267.57 227.6 269.056C227.305 270.677 225.048 270.366 223.834 270.89C219.119 272.069 214.465 273.454 209.766 274.678L209.914 274.643C205.807 275.607 201.716 276.661 197.577 277.471C197.543 277.526 197.494 277.571 197.437 277.601C197.38 277.632 197.315 277.647 197.25 277.645Z" fill="#535251"/>
<path d="M146.249 222.259C142.233 218.32 138.462 214.147 134.372 210.28L134.438 210.344L134.064 210.009C133.514 209.784 132.443 208.436 133.573 208.208C134.942 208.751 136.153 209.749 137.289 210.687C140.818 213.66 143.887 217.131 147.091 220.447C152.288 216.398 157.19 211.952 162.303 207.791C163.937 206.16 165.878 204.871 167.46 203.199C168.187 202.386 169.168 203.595 168.465 204.298C163.92 208.483 158.983 212.253 154.376 216.378C152.683 217.412 147.823 223.303 146.249 222.259Z" fill="#535251"/>
<path d="M160.597 233.021C157.503 230.23 154.634 227.16 151.183 224.771C150.285 223.887 146.481 222.545 147.305 221.107C149.82 218.526 152.866 216.522 155.422 213.981C158.917 210.622 162.414 207.263 166.031 204.04C166.551 203.717 167.855 201.935 168.193 203.063C168.349 203.333 168.012 203.713 167.751 203.495C165.566 206.024 163.355 208.527 160.915 210.818L160.93 210.802C157.211 214.718 152.93 217.971 148.838 221.462C153.259 224.084 157.327 227.253 160.833 231.017C164.438 223.831 168.187 216.665 171.896 209.516C172.531 208.093 173.222 206.514 174.253 205.37C174.88 205.052 175.448 205.795 175.199 206.384C173.861 209.699 171.84 212.679 170.222 215.856C168.289 220.227 165.801 224.313 163.69 228.594C162.86 229.724 162.328 233.482 160.597 233.021Z" fill="#535251"/>
<path d="M135.141 229.351C134.445 228.952 134.769 227.764 135.534 227.68C136.941 226.724 138.427 225.885 139.766 224.831L139.737 224.855L139.813 224.796L139.768 224.831C141.683 223.199 143.88 221.986 146.104 220.818C146.204 220.524 146.693 220.559 146.941 220.494C147.668 221.083 143.871 223.357 143.342 223.902C141.626 225.124 137.083 229.693 135.141 229.351Z" fill="#535251"/>
<path d="M135.673 230.033C132.217 227.409 131.538 222.259 129.58 218.529C128.762 216.838 128.066 215.091 127.285 213.383C126.905 212.638 126.236 211.581 127.16 210.957C127.708 210.571 128.339 210.982 128.486 211.567C128.716 211.689 129.351 212.134 128.781 212.218C130.19 215.375 131.535 218.552 133.274 221.539C133.661 222.974 138.623 229.967 135.673 230.033Z" fill="#535251"/>
<path d="M20.651 352.264C1.95378 352.455 0.259254 337.136 0.0117057 322.145C-0.182797 305.071 1.93757 288.04 7.23187 271.762C8.97207 265.956 11.5389 260.444 14.3562 255.092C14.8823 254.147 16.3116 251.751 16.7978 252.506C23.2695 246.565 27.0181 240.929 35.7928 237.845L35.8222 237.833L35.9033 237.802L35.8591 237.823C36.1641 237.699 36.5221 237.556 36.8831 237.403C36.6886 236.235 38.4863 235.54 38.7825 236.86L38.7648 236.787C40.5595 241.895 46.427 246.839 50.6206 250.202C61.0294 257.079 76.622 257.137 85.7165 247.992C89.9896 243.813 93.4995 238.505 94.4484 232.559C96.364 230.772 105.908 236.519 107.71 238.146L107.719 238.155C108.447 238.613 109.41 239.612 108.123 240.07C106.957 241.786 106.649 244.028 107.162 246.013C105.13 248.181 104.381 251.876 106.998 253.924C105.05 256.22 105.277 260.335 107.874 262.101C106.709 265.076 108.572 269.292 112.041 269.34C112.483 271.708 112.906 274.298 114.939 275.859C115.017 275.829 115.101 275.818 115.184 275.825C115.268 275.832 115.348 275.857 115.42 275.9C115.492 275.942 115.554 276 115.6 276.07C115.647 276.139 115.677 276.218 115.689 276.301C115.693 276.313 115.696 276.325 115.698 276.337C115.697 276.339 115.697 276.342 115.698 276.345C115.797 278.504 115.571 280.679 115.87 282.836C115.788 283.623 116.641 286.422 115.444 286.363C113.629 287.002 111.846 287.726 110.066 288.456C110.1 288.438 110.136 288.422 110.172 288.409C107.126 289.455 104.393 291.186 101.686 292.932V292.901C101.753 293.468 100.905 293.795 100.774 293.147C100.528 291.611 100.646 290.036 100.58 288.468C99.2904 289.741 97.6209 290.481 96.0487 291.329C96.4082 292.866 96.7943 294.396 97.1229 295.942V295.92C97.254 296.42 96.8473 297.038 96.2933 296.951C92.1351 300.718 88.077 305.078 85.9051 310.209C81.1133 311.388 76.594 313.598 72.0542 315.441L72.0792 315.427C64.9534 318.358 57.5019 321.005 49.9443 322.883C51.5651 327.341 53.1005 332.074 54.434 336.712C54.602 337.961 56.7725 340.351 54.9542 341.033C54.9974 341.204 54.9927 341.383 54.9407 341.552C54.8888 341.72 54.7915 341.871 54.6595 341.988C55.9562 342.266 57.1541 341.073 58.2769 340.569C64.5246 337.475 70.4775 334.685 76.0149 330.551C74.2733 334.445 72.8911 338.545 71.7668 342.696C71.7487 342.67 71.7285 342.645 71.7064 342.622C72.6141 344.373 69.8749 344.171 68.8375 344.349C66.3326 344.558 63.8482 344.915 61.3595 345.259L61.4818 345.24C56.9773 345.743 52.5008 346.381 47.9801 346.706L47.9359 346.714H47.9447L47.8563 346.727C43.3076 347.188 39.0507 348.53 34.7024 349.901C30.0977 351.005 25.378 352.153 20.651 352.264ZM30.7961 291.606C29.8693 303.761 28.9513 315.933 27.575 328.051C30.0417 327.02 32.6129 326.244 35.1577 325.417C33.609 313.146 31.9617 300.899 31.1306 288.552C31.0186 289.57 30.8993 290.587 30.7961 291.606ZM33.6046 299.959V299.978C33.5825 299.785 33.5604 299.58 33.5354 299.365C33.5575 299.561 33.5781 299.759 33.6002 299.955C33.6008 299.945 33.6008 299.935 33.6002 299.925C33.602 299.936 33.6029 299.948 33.6031 299.959H33.6046Z" fill="#FC8650"/>
<path d="M30.4484 282.493C29.9828 274.206 30.7932 273.004 31.3723 282.212V282.139C31.5639 282.752 30.6031 283.222 30.4484 282.493Z" fill="white"/>
<path d="M102.286 286.842C100.371 286.306 104.259 284.74 104.193 279.737C104.193 279.773 104.193 279.81 104.193 279.847C104.287 276.78 104.144 273.71 103.767 270.665C103.508 270.553 103.54 269.888 103.857 269.86C104.667 270.537 104.555 272.004 104.863 272.989C105.73 277.449 106.739 284.032 102.286 286.842Z" fill="white"/>
<path d="M111.006 243.132C110.144 242.039 111.765 240.967 111.596 242.315C112.133 242.724 111.523 243.705 111.006 243.132Z" fill="white"/>
<path d="M117.339 239.118C116.983 238.121 119.743 235.84 120.208 237.035C120.231 237.163 120.208 237.294 120.143 237.407C120.079 237.519 119.976 237.605 119.855 237.649C119.062 237.862 118.038 238.072 117.82 238.994V238.978C117.848 239.248 117.438 239.42 117.339 239.118Z" fill="white"/>
<path d="M127.191 241.568C126.454 241.651 123.529 241.057 124.895 240.046C125.354 240.179 125.753 240.555 126.3 240.521C126.764 240.627 127.699 240.353 127.677 241.079C127.652 241.31 127.458 241.583 127.191 241.568Z" fill="white"/>
<path d="M132.633 236.615C132.117 235.157 136.701 234.572 136.595 236.026C136.539 236.288 136.287 236.547 136.006 236.49C134.236 235.848 132.997 237.372 132.633 236.615Z" fill="white"/>
<path d="M51.0803 204.234C50.0489 203.792 51.3014 201.914 51.2483 201.036C51.82 197.1 53.0784 193.147 56.1109 190.437C56.3245 190.437 56.2199 190.712 56.1286 190.812C54.8673 192.285 53.8137 193.984 53.2773 195.865L53.295 195.802C52.5347 197.281 52.4787 204.243 51.0803 204.234Z" fill="white"/>
<path d="M47.93 216.615C46.6039 216.108 48.4222 215.114 48.8642 214.612C50.6634 212.735 51.9497 210.409 53.0814 208.085C53.5927 207.19 53.5853 205.795 54.3707 205.151C54.3722 207.982 50.7356 215.139 47.93 216.615Z" fill="white"/>
<path d="M34.6788 227.315C35.1813 220.189 40.0718 215.99 45.5326 212.226C46.122 211.565 46.6805 210.806 46.8912 209.931C46.9047 209.844 46.9508 209.765 47.0203 209.71C47.0898 209.655 47.1774 209.629 47.2655 209.636C48.2542 211.089 44.4555 214.078 43.287 214.857L43.3032 214.844L43.259 214.878L43.2811 214.862C40.1337 217.161 37.5153 220.341 36.4632 224.143C35.9564 225.062 36.254 227.662 35.3228 227.885C35.2421 227.894 35.1603 227.887 35.0828 227.862C35.0053 227.838 34.9338 227.798 34.873 227.744C34.8122 227.69 34.7635 227.624 34.73 227.55C34.6965 227.476 34.6791 227.396 34.6788 227.315Z" fill="white"/>
<path d="M42.3057 228.698C41.9123 227.872 43.2532 227.262 43.5906 226.572L43.5656 226.603C43.5774 226.59 43.5877 226.575 43.5995 226.561C44.3112 225.993 45.2586 223.278 45.8097 223.331C45.49 224.999 44.267 226.779 43.2547 228.236L43.2944 228.184C43.0587 228.467 42.7109 229.083 42.3057 228.698Z" fill="white"/>
<path d="M22.9453 238.94C21.4512 237.412 27.7578 232.775 29.1959 232.299C29.8443 232.225 30.9538 230.784 31.278 231.1C30.7239 232.756 27.9037 233.444 26.7867 234.952C25.8142 235.954 24.771 236.925 24.0387 238.127C23.8442 238.566 23.5318 239.235 22.9453 238.94Z" fill="white"/>
<path d="M82.27 222.895C82.0785 222.39 82.6841 218.414 83.608 219.638C83.7023 220.553 83.0348 221.496 83.2204 222.437C83.4547 223.034 82.5264 223.6 82.27 222.895Z" fill="white"/>
<path d="M54.2425 220.668C53.6796 220.132 54.7243 219.489 54.8496 218.921C55.0706 218.495 55.0839 217.99 55.2916 217.57C55.5038 217.253 55.9031 217.608 55.6895 217.887C55.4758 218.654 55.2091 220.699 54.2425 220.668Z" fill="white"/>
<path d="M107.904 151.658C108.523 149.154 111.893 148.463 114.148 148.781L114.833 148.841H114.762C115.901 148.977 117.056 148.803 118.106 148.339C118.161 148.322 118.219 148.316 118.276 148.321C118.334 148.327 118.389 148.344 118.44 148.371C118.491 148.399 118.536 148.436 118.572 148.481C118.608 148.526 118.635 148.578 118.651 148.634C118.724 149.812 116.558 149.97 115.674 150.036C112.855 149.647 109.723 149.031 108.257 151.979C108.212 151.984 108.167 151.979 108.124 151.965C108.081 151.951 108.042 151.928 108.008 151.898C107.975 151.867 107.948 151.83 107.931 151.789C107.913 151.748 107.904 151.703 107.904 151.658Z" fill="white"/>
<path d="M114.82 145.762C114.719 145.291 115.474 145.189 115.763 144.954C117.157 143.969 118.909 144.217 120.429 143.61L120.398 143.623C120.587 143.51 120.857 143.532 120.924 143.771C120.792 144.912 118.673 144.522 117.811 144.727C116.863 144.627 115.259 146.045 114.82 145.762Z" fill="white"/>
<path d="M126.509 146.993C126.042 146.744 126.609 146.515 126.916 146.584C128.063 146.473 129.126 145.927 130.044 145.259C131.665 144.059 133.045 142.234 135.145 141.926C135.521 141.882 136.132 141.742 136.159 142.292C136.167 142.417 136.129 142.541 136.054 142.641C135.978 142.741 135.869 142.81 135.746 142.837C135.4 142.891 135.051 142.928 134.706 142.984L134.768 142.969C131.816 143.881 129.877 147.218 126.509 146.993Z" fill="white"/>
<path d="M130.426 141.576C130.131 140.114 137.952 136.173 138.441 138.233C138.378 138.896 137.656 138.668 137.201 138.684C134.908 138.665 132.683 139.733 131.039 141.29L131.047 141.282C131.037 141.291 131.028 141.302 131.019 141.31L131.031 141.299C130.868 141.447 130.67 141.804 130.426 141.576Z" fill="white"/>
<path d="M141.3 145.602C140.992 145.54 139.352 145.532 139.865 145.004C139.938 144.99 139.971 145.063 140.033 145.08H140.02C142.466 145.7 144.664 144.562 146.613 143.205C146.989 143.074 147.663 142.552 147.897 143.105C147.93 143.213 147.923 143.33 147.879 143.435C147.835 143.539 147.756 143.625 147.655 143.678C146.977 143.968 146.317 144.299 145.679 144.669H145.69C144.856 145.161 143.957 145.599 142.972 145.655H142.986C142.423 145.686 141.859 145.668 141.3 145.602Z" fill="white"/>
<path d="M154.063 141.647C151.296 141.252 148.536 139.639 145.834 141.319C145.56 141.442 145.107 141.813 144.937 141.372C145.177 140.132 149.114 139.583 150.284 139.78C151.61 140.101 152.874 140.615 154.262 140.715C154.806 140.839 154.589 141.73 154.063 141.647Z" fill="white"/>
<path d="M153.489 147.442C153.523 147.031 153.984 147.147 154.27 147.119H154.23C154.5 147.083 154.766 147.016 155.021 146.92C155.314 146.806 155.599 146.673 155.874 146.523H155.865C156.228 146.364 156.542 146.001 156.943 145.978C157.33 146.053 157.307 146.638 156.976 146.779C156.252 147.041 153.866 148.383 153.489 147.442Z" fill="white"/>
<path d="M155.566 152.317C155.205 152.169 155.605 151.892 155.851 151.971C156.526 151.903 157.124 151.529 157.582 151.039C157.613 151.011 157.649 150.989 157.689 150.975C157.729 150.961 157.771 150.956 157.813 150.96C157.855 150.964 157.895 150.977 157.932 150.998C157.968 151.019 158 151.048 158.024 151.082C158.223 152.057 156.284 152.312 155.566 152.317Z" fill="white"/>
<path d="M133.897 356.375C133.324 343.923 132.114 331.231 133.044 318.809C133.25 318.661 133.377 318.887 133.353 319.084C133.723 323.813 133.592 328.557 133.616 333.294C133.831 339.61 134.081 345.928 134.515 352.232C134.554 353.464 134.584 354.695 134.722 355.915C134.911 356.392 134.173 356.924 133.897 356.375Z" fill="white"/>
<path d="M143.358 323.333C142.847 322.07 141.24 319.847 143.145 319.071C144.52 318.47 145.65 317.461 147.06 316.907C150.033 315.347 153.269 314.569 156.585 314.171C158.113 313.729 158.329 314.586 158.236 315.917C158.285 317.131 158.413 318.819 156.704 318.624C154.211 318.962 151.911 320.13 149.525 320.88C148.145 321.431 146.847 322.168 145.667 323.072C145.009 323.714 143.915 324.566 143.358 323.333ZM144.564 321.933L144.596 321.902H144.55L144.564 321.933Z" fill="white"/>
<path d="M143.142 324.502C142.258 324.719 142.218 318.39 142.903 320.333C142.93 320.399 142.874 320.504 142.791 320.469C142.837 320.754 142.906 321.036 142.974 321.319C142.975 321.309 142.975 321.299 142.974 321.289C143.121 321.94 143.344 322.569 143.51 323.215C144.914 322.331 146.325 321.429 147.77 320.606L147.754 320.615C150.385 319.169 153.198 318.084 156.119 317.39H156.103C156.579 317.346 157.075 316.993 157.541 317.135C157.942 317.366 157.809 318.038 157.383 318.166C155.444 318.621 153.577 319.283 151.69 319.903H151.7C150.583 320.392 149.448 320.858 148.386 321.459L148.429 321.434L148.264 321.528L148.221 321.552H148.233L148.143 321.603C146.439 322.455 144.891 323.836 143.142 324.502Z" fill="white"/>
</g>
<defs>
<clipPath id="clip0_1601_11900">
<rect width="235" height="227" fill="white" transform="translate(0 132)"/>
</clipPath>
</defs>
</svg>
