<svg width="644" height="890" viewBox="0 0 644 890" fill="none" xmlns="http://www.w3.org/2000/svg">
<path d="M394.394 889.171C532.248 889.171 644 776.075 644 636.565C644 497.055 532.248 383.959 394.394 383.959C256.54 383.959 144.788 497.055 144.788 636.565C144.788 776.075 256.54 889.171 394.394 889.171Z" fill="white"/>
<path d="M194.717 535.523C293.971 535.523 374.433 454.095 374.433 353.647C374.433 253.2 293.971 171.771 194.717 171.771C95.462 171.771 15 253.2 15 353.647C15 454.095 95.462 535.523 194.717 535.523Z" fill="white"/>
<path d="M454.302 262.71C525.986 262.71 584.098 203.901 584.098 131.355C584.098 58.8097 525.986 0 454.302 0C382.618 0 324.507 58.8097 324.507 131.355C324.507 203.901 382.618 262.71 454.302 262.71Z" fill="white"/>
<g clip-path="url(#clip0_1601_11899)">
<path d="M270.197 410.584C267.781 410.154 254.606 410.993 254.758 408.504C254.774 407.569 255.948 406.831 256.727 407.386C283.642 407.047 310.332 402.93 337.098 400.418C369.191 397.796 401.036 393.334 432.814 388.257H432.773C443.308 386.505 453.672 383.712 464.191 382.008L463.804 382.072C470.337 380.108 469.96 387.927 464.001 387.674C464.131 387.652 464.26 387.633 464.387 387.608C406.615 400.276 347.545 405.815 288.629 409.998H288.946L286.388 410.065H286.407C280.995 410.16 275.599 410.553 270.197 410.584Z" fill="#FC8650"/>
<path d="M321.279 429.26C321.646 427.845 319.946 426.448 322.409 426.236C330.275 424.462 338.165 422.8 346.101 421.33C368.45 416.491 390.836 411.791 413.492 408.596L413.315 408.627L413.72 408.558C432.403 405.47 451.085 401.983 469.469 397.422C473.611 394.914 476.119 400.273 472.002 402.233C454.694 407.151 436.855 410.344 419.148 413.511L419.249 413.495L417.349 413.812H417.413C407.144 415.538 396.831 417.02 386.6 418.926L386.717 418.904L386.312 418.974L386.495 418.942C367.832 422.052 349.406 427.31 330.449 428.256H330.715C328.007 428.37 325.265 428.542 322.58 428.095C322.552 428.728 322.726 429.789 321.89 429.922C321.802 429.935 321.712 429.927 321.628 429.897C321.545 429.868 321.469 429.818 321.409 429.753C321.349 429.688 321.305 429.609 321.283 429.523C321.26 429.437 321.259 429.347 321.279 429.26Z" fill="#FC8650"/>
<path d="M328.223 444.87C326.301 444.411 318.454 445.168 318.977 442.372C319.061 442.174 319.207 442.008 319.393 441.899C319.579 441.79 319.795 441.744 320.009 441.767C325.541 441.548 331.092 440.608 336.56 439.667L336.243 439.724L337.827 439.458L338.039 439.423H338.013C338.963 439.267 339.913 439.109 340.863 438.948L340.765 438.964C384.697 430.999 429.458 426.647 472.525 414.622L472.237 414.711C473.557 414.394 474.719 413.343 476.125 413.625C478.816 414.185 478.449 418.001 476.264 419.009C455.492 426.084 433.495 429.349 411.919 433.26H411.995L410.88 433.447L411.282 433.381C383.591 437.121 356.16 443.505 328.223 444.87Z" fill="#FC8650"/>
<path d="M327.115 463.049C325.37 463.138 311.523 462.546 317.526 459.303C317.939 459.35 318.355 459.366 318.771 459.35H318.739C334.587 457.631 350.385 455.379 366.341 454.872C380.162 453.485 393.889 450.689 407.821 450.755H407.407C410.507 450.939 413.448 450.175 416.421 449.438C420.332 449.146 419.955 454.986 416.58 455.54C408.825 457.605 400.687 456.807 392.781 457.925C371.012 460.927 349.085 462.638 327.115 463.049Z" fill="#FC8650"/>
<path d="M414.312 455.265C410.468 448.614 423.495 448.655 427.314 447.227C438.473 444.652 449.581 441.786 460.951 440.304C466.376 439.195 471.803 438.144 477.284 437.349C479.431 437.058 482.008 435.652 484.006 436.928C486.641 439.712 482.942 442.584 480.058 442.565C469.995 444.589 459.906 446.426 449.793 448.177C440.157 450.28 430.75 453.45 420.978 454.888C418.815 454.989 416.307 456.465 414.312 455.265Z" fill="#FC8650"/>
<path d="M309.211 488.034C307.273 487.619 304.436 488.154 303.113 486.451C302.524 484.949 304.696 483.803 305.88 484.452L307.463 484.408H307.235C333.723 482.742 360.179 480.234 386.714 479.204H386.521C412.682 478.219 438.238 472.278 463.782 467.005C469.246 465.907 474.603 464.331 479.792 462.296C482.898 461.688 490.558 456.475 489.725 463.103C487.825 466.97 478.566 468.034 474.561 470.036L474.725 469.988L474.336 470.109L474.409 470.086L473.605 470.334L473.772 470.28C448.01 476.484 421.953 482.314 395.485 484.395C366.736 485.576 338.001 488.731 309.211 488.034Z" fill="#FC8650"/>
<path d="M349.913 511.923C344.53 511.587 339.1 511.527 333.701 511.213C330.718 511.064 323.046 514.187 322.906 509.357C321.814 509.088 320.652 508.936 319.623 508.496C319.059 507.343 321.13 507.546 321.801 507.426C328.194 506.659 334.663 506.254 341.161 505.867C366.961 503.806 392.993 503.793 418.502 499.255C422.089 499.635 420.842 504.493 417.869 504.924C406.441 508.192 394.291 508.224 382.496 509.082C371.651 510.127 360.85 512.303 349.913 511.923Z" fill="#FC8650"/>
<path d="M351.417 532.173C347.469 525.088 360.074 527.245 363.766 527.004C371.049 527.21 378.294 526.143 385.574 525.791C393.949 524.882 402.356 524.208 410.674 522.767C413.917 523.001 422.64 518.649 422.552 524.185C421.025 528.394 414.851 527.109 411.282 528.208C406.216 529.287 401.048 529.908 395.887 530.443C381.207 531.492 365.945 533.509 351.417 532.173Z" fill="#FC8650"/>
<path d="M369.46 551.894C369.082 551.756 368.745 551.525 368.48 551.223C368.215 550.921 368.031 550.557 367.943 550.164C366.822 550.003 364.352 550.079 364.643 548.397C364.706 548.16 364.845 547.95 365.039 547.801C365.233 547.651 365.472 547.57 365.717 547.571C366.672 547.614 367.629 547.541 368.567 547.352C370.467 544.872 373.833 546.858 376.445 545.956C390.175 543.074 404.31 542.884 417.992 539.85C421.241 538.719 423.217 542.456 420.208 544.283C414.23 546.184 407.859 547.032 401.634 547.891C395.048 548.591 388.617 550.222 382.002 550.798C377.927 551.517 373.617 553.031 369.46 551.894Z" fill="#FC8650"/>
<path d="M296.827 273.836C293.902 273.956 290.127 271.72 292.271 268.509C293.313 267.09 295.231 266.849 296.818 266.399C300.703 264.243 305.165 262.754 309.651 263.064C317.403 262.748 318.283 269.554 310.839 271.479C306.336 272.87 301.552 273.87 296.827 273.836Z" fill="#FC8650"/>
<path d="M254.333 282.947C249.995 282.63 249.663 277.582 253.659 276.28C256.993 274.174 273.769 272.052 268.541 279.764C264.485 282.576 259.194 283.479 254.333 282.947Z" fill="#FC8650"/>
<path d="M170.755 321.1C166.144 320.594 158.893 319.64 157.75 314.26C157.652 312.217 159.735 311.216 161.509 311.758C164.716 309.762 172.252 312.733 174.64 315.434C177.499 318.633 174.602 322.117 170.755 321.1Z" fill="#FC8650"/>
<path d="M200.694 329.122C192.188 328.308 190.998 315.675 199.069 320.169C201.707 319.998 202.954 322.608 204.291 324.318L204.221 324.27C205.016 324.828 204.832 326.132 203.993 326.56C203.721 328.077 202.283 329.379 200.694 329.122Z" fill="#FC8650"/>
<path d="M258.979 464.566C255.758 464.801 252.329 462.219 255.584 459.379C259.115 457.478 263.744 457.703 267.56 458.676C269.491 459.154 270.03 461.589 268.779 463.018C266.173 465.184 262.183 464.519 258.979 464.566Z" fill="#FC8650"/>
<path d="M293.639 465.184C286.612 465.041 284.633 457.9 291.4 457.352C300.858 456.915 305.5 466.533 293.639 465.184Z" fill="#FC8650"/>
<path d="M278.199 463.654C277.341 463.442 276.242 463.217 275.742 462.425C275.299 461.545 276.154 460.338 277.145 460.677C280.783 462.859 285.061 458.805 279.656 457.193L279.801 457.26C278.329 456.753 277.487 455.436 277.325 453.928C277.293 452.842 276.198 445.539 278.592 447.813C278.728 450.03 278.908 452.357 279.808 454.41C283.516 455.442 286.008 459.746 282.059 462.289C281.464 463.66 279.513 463.844 278.199 463.654Z" fill="#535251"/>
<path d="M277.819 476.496C276.214 476.275 272.873 475.249 273.528 473.133C272.734 472.446 273.009 470.365 274.266 471.252L274.193 471.185C274.159 471.16 274.122 471.139 274.083 471.122C275.568 473.656 280.248 475.977 282.217 472.737C282.534 472.189 282.439 471.331 283.079 471.021C286.045 471.005 281.682 477.437 277.819 476.496Z" fill="#535251"/>
<path d="M253.437 454.593C250.192 454.34 246.009 452.522 244.866 449.342C244.346 445.358 250.711 442.885 254.048 442.809C269.634 443.996 269.783 455.382 253.437 454.593ZM257.674 452.376C258.739 452.26 259.797 452.079 260.84 451.835L260.711 451.863C262.053 451.578 263.849 450.856 264.092 449.346C259.213 445.301 251.664 443.167 246.538 447.965C247.291 448.281 247.703 449.168 248.336 449.681L248.209 449.564C250.594 452.215 254.267 452.709 257.674 452.367V452.376Z" fill="#535251"/>
<path d="M297.736 453.973C293.791 453.44 284.136 453.32 286.134 447.214L286.096 447.3C288.807 441.96 297.347 438.866 302.954 440.814C316.187 446.331 307.954 453.776 297.736 453.973ZM300.64 451.559C303.113 451.192 307.356 449.912 307.847 447.3C304.807 443.816 300.209 441.548 295.634 443.316L295.795 443.281C292.914 444.199 289.928 445.428 287.743 447.581C290.219 451.287 296.466 451.629 300.64 451.559Z" fill="#535251"/>
<path d="M255.977 453.143C250.879 452.804 250.011 446.869 255.267 446.131C259.726 445.925 260.948 453.146 255.977 453.143ZM256.312 450.578C256.461 450.541 256.604 450.484 256.737 450.407C256.653 450.265 256.558 450.13 256.452 450.004C256.281 450.151 256.061 450.227 255.837 450.218C255.612 450.208 255.4 450.114 255.242 449.954C255.342 450.113 255.407 450.293 255.432 450.479C255.719 450.556 256.016 450.589 256.312 450.578Z" fill="#535251"/>
<path d="M298.411 452.88C293.1 452.563 293.028 443.623 298.658 444.231C303.664 444.791 303.92 453.409 298.411 452.88Z" fill="#535251"/>
<path d="M254.653 451.778C254.351 451.668 254.086 451.475 253.889 451.221C253.691 450.968 253.569 450.664 253.536 450.344C253.503 450.024 253.56 449.702 253.702 449.413C253.844 449.125 254.063 448.882 254.337 448.712C257.456 444.497 259.83 453.206 254.653 451.778Z" fill="#535251"/>
<path d="M246.886 443.705C244.907 442.378 252.145 439.857 253.26 440.203C253.353 440.183 253.449 440.187 253.54 440.213C253.632 440.238 253.715 440.286 253.785 440.35C253.854 440.415 253.906 440.496 253.938 440.585C253.97 440.675 253.979 440.77 253.966 440.864C253.912 441.631 253.083 441.533 252.519 441.564H252.605C250.92 441.596 249.41 442.223 247.994 443.097L248.061 443.062C247.636 443.211 247.345 443.731 246.886 443.705Z" fill="#535251"/>
<path d="M292.958 439.93C293.826 438.074 297.21 438.267 299.072 437.713C300.101 437.738 299.626 439.211 298.734 438.98H298.759C297.676 439.081 296.59 439.208 295.526 439.414H295.463L295.146 439.49H295.19C294.843 439.578 294.501 439.683 294.164 439.807L294.221 439.784C293.826 439.93 293.214 440.541 292.958 439.93Z" fill="#535251"/>
<path d="M242.982 436.491C239.815 432.529 249.486 431.088 252.066 431.233C255.1 431.778 264.612 431.233 265.305 434.689C264.514 437.523 259.485 435.031 257.253 435.54C253.906 435.436 250.515 435.328 247.196 435.857C245.812 435.993 244.286 437.396 242.982 436.491Z" fill="#535251"/>
<path d="M285.716 434.074C280.425 428.402 300.418 427.458 303.277 429.156C307.644 430.125 307.954 434.784 302.793 432.804H302.837C301.409 432.32 299.908 432.611 298.436 432.684H298.594L298.015 432.725H298.173C294.015 432.985 289.874 434.229 285.716 434.074Z" fill="#535251"/>
<path d="M265.369 458.774C265.391 458.01 266.55 457.953 266.477 458.774C266.455 459.543 265.296 459.6 265.369 458.774Z" fill="#535251"/>
<path d="M267.718 455.993C267.75 454.881 269.431 454.799 269.327 455.993C269.295 457.108 267.614 457.193 267.718 455.993Z" fill="#535251"/>
<path d="M268.491 458.182C268.525 456.972 270.362 456.88 270.248 458.182C270.213 459.401 268.377 459.493 268.491 458.182Z" fill="#535251"/>
<path d="M272.316 456.693C272.354 455.373 274.355 455.278 274.216 456.693C274.178 458.02 272.18 458.118 272.316 456.693Z" fill="#535251"/>
<path d="M284.586 454.777C284.621 453.618 286.375 453.529 286.267 454.777C286.248 455.942 284.478 456.028 284.586 454.777Z" fill="#535251"/>
<path d="M285.257 457.558C285.286 456.607 286.71 456.544 286.622 457.558C286.593 458.505 285.168 458.574 285.257 457.558Z" fill="#535251"/>
<path d="M289.867 456.893C289.867 456.522 290.437 456.494 290.406 456.893C290.374 457.292 289.836 457.292 289.867 456.893Z" fill="#535251"/>
<path d="M293.015 457.827C293.053 456.56 294.962 456.468 294.845 457.827C294.798 459.097 292.898 459.192 293.015 457.827Z" fill="#535251"/>
<path d="M288.857 459.098C288.857 458.859 289.226 458.84 289.204 459.098C289.182 459.355 288.838 459.352 288.857 459.098Z" fill="#535251"/>
<path d="M262.867 454.679C262.63 454.185 263.079 453.801 263.5 453.624L263.434 453.662C263.761 453.481 264.079 453.281 264.384 453.064C264.571 452.918 264.745 452.766 264.916 452.604L264.868 452.655C265.41 452.294 265.742 451.157 266.474 451.315C266.545 451.36 266.603 451.424 266.639 451.501C266.675 451.577 266.688 451.663 266.677 451.746C266.666 451.83 266.631 451.909 266.577 451.974C266.522 452.038 266.45 452.086 266.369 452.11C265.704 452.972 263.972 455.546 262.867 454.679Z" fill="#535251"/>
<path d="M400.849 633.197C398.651 627.994 399.009 621.562 396.84 616.121C394.452 608.415 390.871 601.144 387.432 593.863C378.911 575.596 369.966 557.379 357.82 541.192C344.407 523.042 323.413 514.2 304.306 503.562C300.095 504.347 302.296 488.24 301.859 485.231C302.017 481.586 310.804 480.164 312.172 474.742C314.145 469.358 313.619 463.467 314.005 457.833C314.67 446.717 314.955 435.585 315.468 424.459C313.309 424.111 312.207 421.884 311.301 420.12C306.165 423.385 299.199 423.408 294.218 419.804C289.494 425.691 278.702 427.088 273.953 420.57C267.411 424.348 257.899 426.92 251.408 421.815C248.51 426.35 241.56 428.149 237.219 424.665C238.515 431.146 239.384 437.705 239.818 444.3C239.818 444.234 239.818 444.167 239.793 444.101C241.161 454.869 241.766 466.112 245.616 476.31C247.582 480.788 252.649 481.019 255.21 484.126C257.379 485.921 256.046 490.222 256.585 492.835V492.81C256.053 495.179 258.662 504.673 254.859 503.973C245.483 509.832 234.359 512.03 224.778 517.497L224.831 517.465L224.667 517.56H224.689C213.923 523.837 204.075 531.77 196.336 541.582C194.008 544.244 191.847 547.049 189.867 549.981C189.304 551.096 188.021 553.743 186.745 551.881C187.673 545.23 201.441 531.387 206.89 526.605C207.777 526.754 208.584 525.972 208.689 525.126C211.33 522.988 214.1 521.009 216.874 519.039C217.606 519.612 218.521 518.767 218.48 517.965C224.258 514.247 230.081 510.529 236.579 508.296L236.525 508.322L236.481 508.347C240.309 506.764 244.137 505.215 248.045 503.847C249.818 503.416 251.645 502.475 253.501 501.988C253.428 497.044 253.501 492.021 253.393 487.125C253.393 487.169 253.393 487.214 253.393 487.261C253.423 486.462 253.392 485.661 253.301 484.867C251.87 483.819 250.071 483.4 248.602 482.393C248.602 482.365 248.602 482.34 248.602 482.311C248.602 482.283 248.602 482.311 248.602 482.311C248.601 482.305 248.601 482.298 248.602 482.292C248.597 482.266 248.591 482.241 248.583 482.216C248.557 482.038 248.492 481.869 248.392 481.72C248.292 481.571 248.159 481.446 248.005 481.355C247.85 481.264 247.677 481.208 247.498 481.193C247.319 481.177 247.139 481.202 246.971 481.266C242.602 477.912 241.68 472.341 240.746 467.255C233.305 467.141 229.252 458.08 231.785 451.692C226.206 447.892 225.718 439.05 229.904 434.112C224.284 429.713 225.886 421.761 230.256 417.105C229.144 412.852 229.819 407.994 232.326 404.329C232.73 404.252 233.09 404.028 233.336 403.699C233.582 403.37 233.696 402.961 233.656 402.553C235.534 400.358 238.352 398.645 241.329 398.99C246.525 391.475 262.816 380.181 271.366 387.291C280.175 382.727 295.621 378.838 301.669 389.27C309.569 389.685 322.004 395.585 317.976 405.223C324.983 408.925 328.622 418.91 323.457 425.526C324.835 429.495 324.904 433.786 322.894 437.561C322.719 440.671 322.479 443.825 321.405 446.783C331.221 450.954 323.445 459.654 317.08 462.577C317.324 472.424 314.886 480.876 304.851 484.487C304.94 489.779 304.709 495.115 305.912 500.357C322.32 508.759 339.989 515.9 352.848 529.62C362.313 538.583 368.788 550.079 375.27 561.255C383.775 575.995 390.881 591.592 397.454 607.275C399.848 613.02 401.042 619.164 401.843 625.312C401.682 627.259 404.553 633.913 400.849 633.197ZM237.361 449.963C230.664 452.3 234.397 462.15 239.894 463.654C238.811 459.1 238.435 454.419 237.817 449.789L237.361 449.963ZM317.663 448.848C317.504 452.459 317.27 456.063 317.159 459.673C319.005 458.942 320.721 457.665 321.735 455.936L321.627 456.123C321.823 455.787 322.023 455.452 322.219 455.113L322.105 455.309C324.692 451.851 320.094 449.884 317.672 448.31C317.678 448.481 317.672 448.671 317.663 448.848Z" fill="#535251"/>
<path d="M117.412 623.395C117.696 623.145 117.906 622.82 118.017 622.458C118.129 622.096 118.139 621.71 118.046 621.343C118.945 621.22 119.597 620.33 119.661 619.465C126.833 615.839 134.014 612.225 141.101 608.403L141.069 608.422C148.064 604.238 155.245 600.232 161.569 595.07C164.925 592.558 167.784 589.369 171.223 586.987C171.635 586.353 172.19 585.825 172.845 585.447C173.499 585.068 174.233 584.849 174.988 584.808L174.805 584.853C176.368 584.539 177.862 583.947 179.215 583.105L179.291 583.063L179.355 583.029L179.291 583.063C182.296 581.673 182.961 577.917 186.498 581.109L186.47 581.09C188.629 582.24 190.105 584.21 192.055 585.603C191.9 582.161 186.41 579.269 188.446 575.934C192.03 574.668 195.181 579.463 199.037 578.737C198.913 578.364 198.747 578.005 198.54 577.67C198.539 577.677 198.539 577.685 198.54 577.692C196.732 574.595 192.933 573.619 190.289 571.539C189.525 565.097 199.813 575.497 202.745 572.14C200.861 568.555 196.957 566.212 193.449 564.381H193.477C191.894 564.011 189.855 562.234 192.258 561.287C195.377 560.723 198.274 562.807 201.301 562.446C192.562 551.97 177.629 561.686 167.357 564.825L167.585 564.733C148.479 573.087 128.748 580.647 108.201 584.504C108.018 583.751 107.995 582.747 107.251 582.319C123.479 578.284 139.479 572.593 154.786 566.307H154.764C164.51 562.351 174.225 557.594 184.529 555.057C198.49 550.44 211.678 566.038 198.661 564.834C203.705 567.684 208.945 575.124 199.189 574.683C205.079 581.85 196.875 582.471 191.837 579.434C193.442 581.578 196.545 587.827 191.964 588.143C188.984 586.949 186.878 584.181 183.819 583C181.232 585.714 177.613 587.314 173.95 587.906C170.758 591.871 167.272 595.643 163.256 598.788C151.354 607.687 138.558 613.692 125.139 620.323C122.776 621.429 120.199 623.994 117.412 623.395Z" fill="#535251"/>
<path d="M185.947 556.521C185.776 556.488 185.615 556.413 185.479 556.302C185.344 556.192 185.238 556.049 185.172 555.887C185.011 555.816 184.87 555.705 184.762 555.566C184.654 555.427 184.583 555.263 184.554 555.089C184.383 554.168 185.149 553.411 185.586 552.651C187.17 550.095 189.069 547.925 190.558 545.313C190.682 545.102 190.882 544.946 191.117 544.877C191.352 544.807 191.605 544.829 191.824 544.939C193.268 546.421 190.532 548.423 190.057 549.968L190.137 549.832C188.636 551.384 187.971 556.378 185.947 556.521Z" fill="#535251"/>
<path d="M166.651 654.021C152.307 655.487 150.264 638.005 153.516 627.589C154.346 627.015 154.761 625.777 154.15 624.922C156.207 617.193 158.767 609.607 161.813 602.211C163.057 599.738 164.438 594.791 167.031 593.746C167.841 593.911 167.943 595.124 167.313 595.567C166.48 597.327 165.789 599.151 165.245 601.02C162.294 613.188 146.066 643.712 162.199 650.803L162.015 650.755C168.712 652.529 175.143 649.378 180.757 646.005L180.586 646.106C199.487 635.699 215.399 617.182 237.899 615.43C234.815 613.081 230.746 613.727 227.387 612.767C225.398 608.767 234.305 609.027 236.636 608.599C236.67 608.601 236.704 608.601 236.737 608.599H236.753C234.961 607.861 233.017 607.592 231.098 607.405H231.12C229.483 607.291 225.88 607.405 227.257 604.805C229.119 603.104 231.991 602.791 234.34 602.015L234.09 601.945L234.242 601.986C231.297 600.922 228.074 601.752 225.167 601.138C223.179 598.569 227.33 598.164 229.002 597.682C223.758 597.401 219.474 600.767 214.778 602.496C209.556 604.292 204.132 605.527 199.075 607.798C198.512 609.461 195.798 609.293 194.414 610.189H194.433C187.274 613.207 180.574 617.343 174.425 622.075C173.019 622.787 171.863 625.464 170.134 624.665C165.948 620.802 197.29 604.637 201.127 603.446C205.966 601.546 211.016 600.39 215.918 598.648C218.549 597.496 220.617 596.273 223.593 595.652C225.962 594.629 237 594.686 232.428 599.006C238.872 600.232 240.205 603.263 232.915 604.91C235.55 605.575 240.271 606.176 239.882 609.682C239.207 611.415 236.715 610.807 235.227 611.266C237.798 612.216 242.364 614.639 238.944 617.445C236.535 618.974 233.245 618.711 230.55 619.715C227.114 620.466 223.9 622.322 220.699 623.75C220.354 623.117 219.727 623.772 219.705 624.27C204.553 632.377 182.923 652.529 166.651 654.021Z" fill="#535251"/>
<path d="M198.024 606.119C196.064 604.219 201.96 598.3 202.853 596.013C206.555 590.873 209.075 584.733 213.233 580.014C213.464 579.656 213.641 579.238 214.005 578.997C214.183 580.128 214.35 581.261 214.483 582.398C211.478 587.345 208.385 592.34 205.218 597.157C204.002 598.845 199.75 607.035 198.024 606.119Z" fill="#535251"/>
<path d="M208.056 630.186C205.491 627.25 204.164 623.139 202.372 619.633C200.614 615.833 198.084 612.425 196.416 608.59C195.564 606.392 199.015 604.324 199.915 606.911C202.061 613.033 205.275 618.718 208.081 624.545C208.049 624.485 208.014 624.425 207.98 624.368C208.964 625.913 211.596 630.268 208.056 630.186Z" fill="#535251"/>
<path d="M383.63 646.027C371.325 644.041 364.998 630.93 357.307 622.382C357.319 622.147 357.263 621.914 357.146 621.711C357.028 621.507 356.854 621.342 356.645 621.236C356.644 621.154 356.623 621.074 356.584 621.002C356.546 620.931 356.49 620.87 356.423 620.824C356.355 620.779 356.277 620.75 356.197 620.741C356.116 620.733 356.034 620.743 355.958 620.773C352.627 617.074 349.308 612.602 344.84 610.195C342.526 608.387 339.109 608.612 337.111 606.439C335.167 602.803 339.98 601.606 342.789 601.616C340.658 600.498 337.871 600.032 336.139 598.351C335.506 594.55 343.181 595.123 345.534 595.912C343.143 593.907 339.885 593.062 338.055 590.43C337.896 585.302 346.136 589.112 348.596 590.36C347.158 588.26 344.521 586.417 344.514 583.659C344.85 581.227 347.234 579.456 349.647 579.96C352.497 580.482 354.473 582.829 356.949 584.112C357.004 584.347 357.146 584.552 357.346 584.686C357.547 584.82 357.791 584.873 358.029 584.834C364.013 588.612 393.097 608.761 390.504 615.532C388.794 617.283 387.578 614.645 386.635 613.441C384.294 610.472 381.74 607.676 378.994 605.077C372.132 599.418 365.093 593.948 357.813 588.827C354.584 586.953 352.142 583.029 348.384 582.433H348.548C348.29 582.434 348.034 582.489 347.798 582.595L347.953 582.535C344.812 583.9 351.259 588.324 351.708 590.531C352.728 591.751 353.707 595.155 351.075 594.705C347.963 593.008 344.907 590.642 341.3 590.234C343.001 591.409 355.695 598.683 348.944 599.621C345.974 598.94 343.124 597.144 339.986 597.781L341.294 598.354L341.148 598.29C344.283 600.08 348.431 600.618 351.018 603.149C351.522 604.175 350.607 605.483 349.457 605.239C346.332 604.967 343.2 603.792 340.075 604.669C351.889 606.816 358.649 618.24 366.113 626.597L366.027 626.486L366.154 626.648C366.173 626.673 366.192 626.702 366.214 626.727L366.167 626.667C370.679 631.459 374.513 637.603 380.568 640.459C388.8 644.428 402.549 639.626 400.792 629.001C400.697 627.734 402.644 627.513 402.54 628.897C402.504 629.177 402.537 629.461 402.635 629.726C406.21 640.307 392.857 647.94 383.63 646.027Z" fill="#535251"/>
<path d="M395.045 643.332C393.002 642.575 394.864 640.646 395.757 639.721C400.041 634.895 399.557 628.251 399.284 622.227C399.446 620.602 398.335 618.088 399.512 616.897C399.578 616.89 399.644 616.896 399.707 616.917C399.77 616.937 399.827 616.971 399.876 617.015C399.925 617.059 399.964 617.113 399.99 617.174C400.016 617.234 400.029 617.3 400.029 617.366C400.082 620.143 400.896 622.832 401.384 625.549C402.774 631.851 401.773 640.684 395.045 643.332Z" fill="#535251"/>
<path d="M355.765 617.543C358.469 613.803 361.578 610.3 364.46 606.674C366.065 605.017 371.458 595.342 373.681 599.323C374.152 600.675 372.902 601.467 372.056 602.259C370.049 604.083 368.446 606.287 366.756 608.393C365.35 609.581 355.828 624.013 355.765 617.543Z" fill="#535251"/>
<path d="M285.776 570.474C286.935 569.391 288.31 568.574 289.554 567.577L289.443 567.662C300.301 559.46 312.504 553.122 325.199 548.289L325.284 548.258C326.016 547.966 326.738 547.675 327.469 547.387L327.304 547.453C331.269 545.933 335.401 544.92 339.514 543.875L339.35 543.913C340.179 543.719 341.009 543.533 341.842 543.343L341.674 543.381L342.051 543.292L341.889 543.33L342.298 543.235H342.253C351.221 541.566 352.221 537.499 353.111 548.619C352.446 548.619 351.784 548.619 351.119 548.657C350.917 546.969 350.746 545.271 350.401 543.605C342.953 545.822 335.259 547.286 327.95 549.974L328.004 549.952C313.622 555.805 299.269 562.392 286.255 570.82C286.125 570.668 285.961 570.549 285.776 570.474Z" fill="#535251"/>
<path d="M285.298 570.373C279.298 567.656 272.813 566.326 267.066 562.906C259.359 558.652 250.679 556.638 242.367 553.93L242.545 553.974C235.262 552.622 228.033 549.373 220.566 549.759C220.25 551.026 219.993 552.318 219.708 553.594C219.293 553.572 218.878 553.553 218.464 553.556C218.758 551.71 217.986 548.933 219.749 547.751C225.132 546.374 230.731 548.616 236.015 549.61C251.806 552.79 266.885 558.821 280.514 567.409H280.495L280.777 567.599L280.745 567.577L280.941 567.71C282.357 568.688 283.911 569.442 285.343 570.396L285.298 570.373Z" fill="#535251"/>
<path d="M285.859 570.516C287.319 567.488 289.627 564.942 292.008 562.598L291.989 562.614C303.287 550.579 318.21 542.155 334.252 538.424C338.941 537.158 343.849 536.455 348.589 535.641C350.217 536.705 349.264 539.257 349.72 540.914C349.891 541.794 348.862 542.773 348.054 542.149C347.26 541.078 347.674 539.466 347.421 538.193C344.055 539.226 340.556 539.552 337.136 540.337H337.155C334.622 540.952 332.143 541.851 329.556 542.358C312.59 547.352 298.167 558.155 286.213 570.839C286.118 570.709 285.997 570.599 285.859 570.516Z" fill="#535251"/>
<path d="M283.43 569.433C280.621 568.045 277.284 568.049 274.811 566.034L274.843 566.057L274.668 565.936L274.738 565.987C268.744 561.483 262.861 556.802 256.145 553.398L256.281 553.461C249.435 550.611 242.915 547.058 236 544.369C236.019 544.38 236.039 544.389 236.06 544.397C233.549 543.289 230.762 542.978 228.058 542.674C227.992 544.467 228.644 546.937 227.317 548.331C225.563 548.647 226.554 545.797 226.146 544.768C221.807 532.046 252.858 550.202 257.208 551.343L257.072 551.279L257.525 551.482L257.389 551.422C264.311 554.905 270.394 559.621 276.502 564.331L276.375 564.248L277.065 564.711L276.942 564.631C279.143 566.183 281.217 567.916 283.443 569.439L283.43 569.433Z" fill="#535251"/>
<path d="M285.298 570.373C278.357 567.133 274.513 559.469 268.421 554.855C258.428 547.365 247.006 541.8 234.657 539.634C233.932 540.638 233.39 542.925 231.76 542.209C231.088 541.835 230.949 540.888 231.297 540.249C232.247 538.922 232.478 536.173 234.54 536.268C237.554 536.977 240.638 537.389 243.574 538.412C255.533 542.104 267.42 548.157 275.78 557.635C279.443 561.436 283.436 565.487 285.52 570.386C285.446 570.375 285.372 570.371 285.298 570.373Z" fill="#535251"/>
<path d="M285.441 569.93C289.449 553.538 311.089 542.801 325.588 536.847C331.152 535.048 336.718 533.047 342.317 531.444C344.533 531.634 343.681 535.207 344.365 536.781C344.473 537.775 343.273 538.789 342.393 538.092C341.601 537.072 341.867 535.489 341.569 534.247C328.169 538.77 314.8 543.815 303.11 551.951L303.186 551.891C297.372 556.641 291.39 561.604 287.353 568.011L287.417 567.903L287.008 568.625C287.328 569.246 285.954 570.757 285.441 569.93Z" fill="#535251"/>
<path d="M253.697 496.936C254.2 493.237 263.656 495.514 266.626 494.77C278.915 494.827 291.641 494.498 303.746 495.619C305.963 499.768 293.727 498.064 291.53 498.498C286.483 498.526 281.442 498.58 276.394 498.466C270.486 498.336 264.564 498.887 258.662 498.444C256.946 498.577 253.611 499.717 253.697 496.936Z" fill="#535251"/>
<path d="M187.312 326.953C185.903 326.003 183.512 325.388 183.196 323.523C183.069 322.256 184.602 320.92 185.729 321.832C187.106 323.064 188.655 324.59 190.608 324.628C188.123 318.646 187.739 311.691 189.924 305.56C190.064 305.088 190.599 303.739 191.128 304.562C189.886 309.74 190.887 315.45 192.511 320.489C195.105 325.461 193.107 329.556 187.312 326.953Z" fill="#535251"/>
<path d="M184.136 340.913C177.547 340.818 177.372 332.46 179.035 335.32C180.301 338.332 185.311 339.754 187.686 337.35C187.769 337.246 187.872 337.161 187.991 337.099C188.109 337.038 188.238 337.002 188.371 336.994C188.504 336.986 188.637 337.006 188.762 337.052C188.886 337.099 189 337.171 189.095 337.265C190.165 339.643 186.014 341.119 184.136 340.913Z" fill="#535251"/>
<path d="M161.999 314.725C161.467 314.446 161.771 313.487 162.373 313.579C163.598 313.417 165.343 311.14 166.331 312.312C166.743 313.376 162.826 314.833 161.999 314.725Z" fill="#535251"/>
<path d="M166.964 316.416C167.056 315.229 168.981 314.947 169.719 314.066C170.162 313.667 170.67 313.346 171.22 313.116C172.17 312.85 172.408 314.351 171.603 314.671C170.384 314.972 167.902 317.328 166.964 316.416Z" fill="#535251"/>
<path d="M174.216 317.902C173.943 317.069 175.102 316.701 175.482 316.112C175.967 315.647 176.701 314.491 177.382 315.317C177.501 315.516 177.54 315.752 177.491 315.978C177.442 316.205 177.307 316.403 177.116 316.533C176.245 316.866 175.086 318.716 174.216 317.902Z" fill="#535251"/>
<path d="M196.473 325.509C194.661 324.08 198.718 322.7 199.535 321.762C200.567 321.129 201.197 322.801 200.279 323.32C199.003 323.928 197.803 325.284 196.473 325.509Z" fill="#535251"/>
<path d="M169.479 307.172C164.52 306.516 159.213 303.786 157.015 299.105C155.299 297.205 157.512 295.644 159.045 294.671C162.142 292.705 166.056 292.749 169.564 293.291C173.516 294.557 176.122 298.38 178.208 301.769C179.095 304.413 175.606 305.61 173.728 306.434L173.867 306.377C172.459 306.885 170.976 307.154 169.479 307.172ZM170.077 304.955C172.106 304.804 174.042 304.041 175.628 302.766C172.512 296.464 165.688 293.297 159.086 296.306C160.071 298.022 160.536 300.163 162.373 301.221L162.218 301.119C164.656 302.731 166.999 304.847 170.077 304.958V304.955Z" fill="#535251"/>
<path d="M168.576 305.708C166.502 305.237 163.336 304.72 163.51 301.952C164.007 297.202 170.542 299.023 171.774 302.37C171.958 302.823 172.006 303.319 171.914 303.799C171.822 304.279 171.593 304.722 171.255 305.075C170.917 305.428 170.485 305.675 170.009 305.787C169.534 305.9 169.036 305.872 168.576 305.708Z" fill="#535251"/>
<path d="M157.228 296.182C156.797 295.732 156.48 295.188 156.094 294.703L156.024 294.611L156.069 294.671C152.193 290.871 155.47 289.519 155.704 291.536C156.338 293.119 159.574 294.241 158.504 296.093C158.429 296.187 158.335 296.265 158.228 296.321C158.122 296.377 158.005 296.41 157.885 296.418C157.765 296.427 157.645 296.41 157.531 296.369C157.418 296.329 157.315 296.265 157.228 296.182Z" fill="#535251"/>
<path d="M160.98 294.757C160.029 293.506 159.163 292.191 158.39 290.823C157.864 290.491 158.187 289.373 158.858 289.68C159.203 289.943 159.378 290.377 159.666 290.7C160.388 291.922 162.968 293.116 162.094 294.69C162.029 294.773 161.947 294.841 161.854 294.89C161.76 294.939 161.657 294.967 161.552 294.974C161.447 294.98 161.341 294.964 161.243 294.926C161.144 294.889 161.054 294.831 160.98 294.757Z" fill="#535251"/>
<path d="M165.099 294.88C164.776 294.286 164.504 293.665 164.286 293.024L164.324 293.119C164.14 292.293 161.879 288.939 163.779 289.237L163.738 289.199C163.804 289.253 163.851 289.326 163.875 289.408C163.898 289.49 163.895 289.577 163.868 289.658C164.4 291.365 167.322 293.202 166.239 294.994C166.16 295.069 166.066 295.126 165.963 295.161C165.861 295.197 165.751 295.209 165.643 295.198C165.535 295.187 165.43 295.153 165.337 295.099C165.243 295.044 165.162 294.969 165.099 294.88Z" fill="#535251"/>
<path d="M184.139 295.761C183.129 295.672 182.711 294.494 181.939 293.965C181.986 294.003 182.03 294.048 182.075 294.089C178.152 290.212 173.712 286.773 168.209 285.604L168.326 285.636C163.814 283.881 158.852 284.686 154.289 283.98C153.535 284.252 153.339 283.251 153.931 282.903C154.226 281.155 156.42 281.804 157.68 281.779C165.552 280.705 174.497 283.292 180.479 288.524C181.726 290.494 187.328 292.996 184.855 295.542C184.646 295.69 184.395 295.767 184.139 295.761Z" fill="#535251"/>
<path d="M32.3929 432.047C25.1417 422.667 27.1778 409.318 31.4842 399.075C36.4492 386.227 49.3778 376.979 62.582 374.094C66.3532 352.14 80.8525 337.075 100.925 328.53C105.187 308.749 113.562 289.18 128.907 275.47C145.923 260.129 170.808 251.188 193.426 257.475C200.393 259.232 206.874 262.358 211.583 267.926C219.205 276.509 225.272 292.084 215.557 301.259C215.649 301.766 214.895 301.975 214.528 302.12C214.119 303.891 213.784 305.674 213.261 307.409C214.423 307.507 216.158 305.699 216.893 307.048C217.131 309.034 214.075 308.654 212.777 308.971L212.264 310.583C213.624 310.842 215.029 310.747 216.342 310.307C217.226 310.041 217.792 311.124 217.374 311.837C216.108 313.24 213.401 312.676 211.811 312.055L211.735 312.309C211.739 312.29 211.744 312.272 211.751 312.255L211.732 312.315C211.733 312.336 211.733 312.357 211.732 312.378C211.697 312.508 211.659 312.635 211.624 312.761V312.72L211.529 313.053C211.529 313.027 211.529 313.002 211.551 312.974C209.233 322.003 207.296 331.14 204.015 339.893C201.374 347.596 198.059 358.433 188.028 357.777C187.907 360.051 187.394 362.297 187.274 364.564V364.346C186.992 369.283 186.375 374.525 184.399 379.06C188.484 380.675 192.515 382.379 196.492 384.251L196.203 384.124C198.632 385.34 201.384 386.024 203.61 387.582C202.27 388.374 202.625 390.214 202.343 391.538C193.24 388.146 174.162 381.875 168.696 374.347C166.961 373.619 170.913 349.645 172.753 349.36C174.751 348.748 176.302 350.943 178.066 351.576C182.863 353.16 188.8 354.702 193.449 352.001C199.55 344.771 201.276 334.554 204.256 325.734C203.046 325.927 201.327 328.217 200.329 327.175C200.251 326.997 200.236 326.798 200.288 326.611C200.339 326.424 200.453 326.261 200.611 326.148C201.878 325.458 203.23 323.27 204.756 323.802C205.389 321.195 205.966 318.567 206.596 315.954C201.621 317.987 194.323 314.744 193.696 309.17C196.894 304.591 204.848 302.266 209.325 306.516C209.94 304.79 210.332 303.001 210.909 301.262C208.692 301.246 206.536 299.945 204.224 299.973C201.466 299.536 198.436 300.154 195.814 299.808C195.393 298.928 196.561 298.681 197.119 298.348C201.406 295.976 206.713 296.359 211.181 297.99L211.013 297.949C211.354 298.033 211.689 298.139 212.017 298.266C212.736 296.397 213.378 294.497 214.154 292.651C207.967 284.904 200.953 277.794 194.522 270.336C185.783 274.96 175.64 275.302 166.075 276.952C157.193 278.491 148.415 280.588 139.6 282.469C138.181 284.17 132.162 310.738 129.344 303.302C123.555 303.843 113.752 310.184 122.115 314.991C124.23 316.6 129.648 315.45 128.812 319.289C125.329 356.894 129.239 373.065 91.5456 392.39L91.5963 392.361C88.8034 393.726 86.2133 396.013 83.2115 396.738L83.069 396.802C81.8531 394.686 78.8861 396.523 79.2407 398.604C78.5251 398.92 77.8158 399.196 77.1034 399.475H77.135L76.9609 399.541L76.8975 399.566C58.0824 406.141 49.97 418.299 36.0977 431.062C35.3567 429.71 34.0743 432.104 33.479 432.646C33.2648 432.634 33.0559 432.574 32.868 432.47C32.68 432.366 32.5177 432.222 32.3929 432.047ZM204.088 309.563C204.691 309.908 205.168 310.434 205.453 311.068C205.737 311.701 205.814 312.408 205.671 313.088C206.33 312.926 206.953 312.644 207.511 312.258C207.758 311.358 208.005 310.462 208.287 309.572C204.937 306.57 199.949 307.571 196.412 309.705C197.164 310.762 198.159 311.621 199.313 312.21C199.323 311.929 199.398 311.653 199.53 311.404C199.662 311.155 199.849 310.939 200.076 310.773C200.776 309.313 202.714 308.644 204.088 309.563ZM215.804 289.645H215.839C215.601 289.376 215.373 289.107 215.148 288.841C215.357 289.107 215.576 289.376 215.791 289.645H215.804Z" fill="#535251"/>
<path d="M289.098 659.794C279.304 653.52 266.847 652.51 255.613 650.271C248.156 649.501 240.765 648.219 233.299 647.487C229.366 647.104 225.129 648.086 221.38 646.683C218.958 645.619 219.908 635.218 219.534 632.393C219.914 631.171 218.625 622.259 220.715 623.779C223.897 622.271 227.124 620.482 230.553 619.712C233.238 618.702 236.538 618.971 238.948 617.442C242.364 614.636 237.801 612.206 235.23 611.263C236.731 610.784 239.175 611.421 239.885 609.679C240.262 606.173 235.55 605.562 232.919 604.906C240.22 603.241 238.865 600.222 232.434 598.997C237.022 594.658 225.952 594.623 223.6 595.637C220.623 596.27 218.552 597.48 215.924 598.633C211.026 600.374 205.969 601.515 201.134 603.431C205.75 596.732 210.158 589.388 214.483 582.402L214.534 582.794C213.242 574.855 212.951 566.829 212.403 558.817C212.403 557.55 211.805 555.561 213.131 554.814C221.529 551.102 234.951 555.669 243.751 557.401C252.684 559.019 261.255 561.81 269.659 565.198C275.131 567.19 281.198 567.928 286.232 570.836C292.629 565.553 300.706 563.358 308.138 560.008L308.347 559.925H308.325L308.86 559.716H308.844L309.898 559.305L309.689 559.387C312.821 558.171 315.886 556.774 319.018 555.552H319.002L319.293 555.438L319.183 555.479L319.499 555.355L319.445 555.374C321.852 554.401 324.321 553.592 326.836 552.951L326.624 553.002C331.31 552.328 352.589 546.617 355.017 549.461C356.854 548.955 357.867 549.778 357.836 551.678C358.288 556.587 358.355 561.512 358.428 566.437C358.244 567.973 360.866 589.173 356.984 584.09C354.508 582.823 352.529 580.463 349.701 579.941C347.288 579.44 344.904 581.208 344.568 583.643C344.568 586.405 347.212 588.242 348.65 590.344C346.199 589.112 337.941 585.277 338.105 590.417C339.939 593.052 343.194 593.901 345.584 595.899C343.308 595.092 335.452 594.598 336.186 598.341C337.903 600.032 340.689 600.488 342.836 601.606C340.021 601.606 335.214 602.791 337.159 606.433C339.157 608.612 342.576 608.381 344.888 610.189C349.353 612.599 352.674 617.068 356.005 620.767C356.081 620.736 356.163 620.724 356.245 620.732C356.327 620.74 356.405 620.768 356.473 620.813C356.542 620.859 356.598 620.92 356.637 620.992C356.676 621.064 356.698 621.144 356.699 621.226C358.304 623.332 356.984 627.158 357.478 629.777C357.047 632.061 358.836 636.912 356.483 638.072C346.265 637.945 336.661 642.794 326.627 644.627H326.579C318.736 646.565 311.418 650.132 303.911 653.045L304.113 652.963C301.706 653.87 299.365 654.943 297.106 656.174L297.286 656.073L296.599 656.462C296.115 656.744 295.627 657.02 295.14 657.295L295.314 657.197C293.446 657.751 290.786 660.811 289.098 659.794Z" fill="#FC8650"/>
<path d="M285.726 337.094C284.367 329.312 283.155 321.477 281.571 313.743C271.584 315.181 259.53 313.157 254.213 303.609C247.285 290.846 244.635 276.433 240.053 262.77C228.337 263.324 221.371 250.865 223.904 240.357C225.015 235.467 221.336 231.192 221.371 226.314C219.471 213.431 230.423 208.782 235.727 199.046L235.585 199.236C240.746 191.075 249.137 184.38 258.7 182.35C263.421 181.007 267.914 183.743 272.575 183.683C281.641 174.891 294.946 169.723 307.603 172.985C310.947 173.859 314.145 175.677 316.301 178.416C317.884 179.914 318.017 182.882 320.041 183.74C327.2 184.291 335.306 183.423 340.623 189.365C347.798 195.927 347.985 205.909 348.181 214.913C349.815 218.169 352.864 220.639 354.064 224.158C356.119 231.492 354.653 239.473 351.902 246.431C359.393 251.869 354.492 263.733 347.63 267.565C348.143 269.395 348.533 271.258 348.982 273.101C352.253 286.101 355.632 299.089 357.826 312.324C357.75 315.099 361.885 324.973 357.931 325.258C355.496 324.872 356.347 321.23 355.663 319.438C354.389 312.178 352.739 304.99 350.721 297.902C350.746 298 350.771 298.095 350.793 298.193C349.726 293.126 348.042 288.233 346.88 283.194L346.956 283.511C346.639 282.244 346.322 280.977 346.006 279.71C346.034 279.818 346.059 279.926 346.085 280.027C345.648 276.154 341.861 267.647 344.875 264.775C355.439 259.454 354.248 245.456 340.759 248.211V248.579V248.499C340.224 253.75 341.446 259.511 339.366 264.452C336.766 267.935 332.504 264.715 331.855 261.332C329.914 256.312 329.983 250.745 329.322 245.453C327.352 232.835 325.838 220.063 322.751 207.673C316.551 207.578 310.652 210.676 304.535 211.591C297.356 212.734 290.225 209.422 283.047 211.176C272.813 213.903 263.636 220.36 252.902 221.152C248.238 221.532 243.453 219.401 238.932 221.187L239.09 221.098C237.959 221.92 237.02 222.978 236.338 224.199C237.409 231.781 237.485 239.502 239.334 246.979C241.582 254.58 244.014 262.105 246.335 269.674C250.739 281.709 252.313 302.253 264.776 308.473C274.909 313.579 283.867 307.184 284.826 312.495C286.85 320.299 288.113 328.308 289.32 336.273C289.554 338.405 286.153 339.58 285.726 337.094Z" fill="#535251"/>
<path d="M276.055 286.735C265.505 285.69 272.224 273.376 272.442 266.944C272.604 263.239 271.473 259.514 271.781 255.86C272.24 254.795 273.623 255.879 273.231 256.724C279.95 269.05 268.228 281.332 275.194 283.419C279.041 284.265 283.544 281.55 284.443 277.674C284.573 277.139 285.051 276.635 285.647 276.74C285.779 276.773 285.904 276.832 286.013 276.914C286.122 276.996 286.213 277.099 286.282 277.218C286.35 277.336 286.395 277.466 286.412 277.602C286.429 277.737 286.418 277.875 286.381 278.006C285.415 282.672 280.938 286.88 276.055 286.735Z" fill="#535251"/>
<path d="M280.78 297.458C278.899 297.234 275.514 296.467 275.713 294.063C275.891 293.68 276.457 293.531 276.704 293.924C277.134 294.471 277.737 294.855 278.414 295.013L278.3 294.985L278.544 295.048H278.494C285.108 296.543 282.673 291.66 285.681 291.495C287.945 293.547 283.354 298.231 280.78 297.458Z" fill="#535251"/>
<path d="M253.855 284.112C253.855 283.368 254.663 276.512 255.85 278.713C255.359 279.808 255.448 281.091 255.366 282.288V282.231C255.366 282.266 255.366 282.301 255.366 282.336V282.307C255.252 283.15 255.825 284.575 254.672 284.841C254.57 284.853 254.465 284.843 254.367 284.812C254.268 284.781 254.177 284.729 254.1 284.66C254.023 284.592 253.961 284.507 253.919 284.413C253.877 284.318 253.855 284.216 253.855 284.112Z" fill="#535251"/>
<path d="M258.944 284.211C258.016 283.577 259.78 276.724 260.821 276.559C261.885 276.876 260.654 278.304 260.793 279.093C260.793 279.061 260.793 279.026 260.793 278.995C260.283 280.328 261.325 285.031 258.944 284.211Z" fill="#535251"/>
<path d="M265.783 282.355C264.181 282.067 265.378 280.008 265.511 278.998C266.106 277.715 265.672 275.891 266.461 274.836C267.813 274.976 266.736 278.672 266.879 279.767C266.759 280.673 267.069 282.26 265.783 282.355Z" fill="#535251"/>
<path d="M295.96 272.756C295.96 271.901 297.312 264.205 298.493 267.258C297.613 269.104 298.809 272.588 296.938 273.652C296.813 273.664 296.688 273.65 296.569 273.611C296.45 273.571 296.341 273.507 296.248 273.423C296.156 273.338 296.083 273.235 296.033 273.12C295.983 273.005 295.958 272.881 295.96 272.756Z" fill="#535251"/>
<path d="M302.483 273.408C300.301 272.775 302.289 269.709 302.483 268.236C302.483 268.268 302.464 268.3 302.457 268.331C302.72 267.733 302.502 266.966 302.91 266.45C304.781 265.24 304.132 268.528 304.002 269.494C303.664 270.751 304.221 273.167 302.483 273.408Z" fill="#535251"/>
<path d="M311.342 271.349C309.151 271.546 311.501 264.328 312.815 264.442C313.385 264.55 313.375 265.392 312.904 265.642C312.885 265.68 312.866 265.722 312.85 265.763C312.85 265.731 312.875 265.703 312.891 265.671C311.897 267.346 313.66 270.741 311.342 271.349Z" fill="#535251"/>
<path d="M296.539 259.679C293.499 259.264 289.76 258.127 288.424 255.096C286.289 253.392 289.013 250.051 290.27 248.468C295.526 242.767 304.376 240.617 311.745 242.748C329.543 250.054 306.333 262.33 296.539 259.679ZM299.36 256.968C305.196 256.787 312.786 254.928 315.475 249.209C315.475 249.24 315.475 249.272 315.475 249.301C309.651 242.245 295.117 245.877 290.232 252.841C291.824 256.221 295.858 256.977 299.36 256.968Z" fill="#535251"/>
<path d="M252.231 269.785C249.584 269.725 245.873 268.835 245.265 265.848C245.056 256.905 256.955 253.943 264.222 255.08C269.726 256.483 272.427 262.365 267.202 266.117C263.006 269.313 257.376 269.991 252.231 269.785ZM256.629 266.618C258.804 266.39 261.002 266.178 263.006 265.24L262.934 265.272L263.117 265.199H263.082L263.263 265.126L263.177 265.161L263.358 265.088H263.326C271.762 261.747 264.577 256.879 258.861 257.978H258.909H258.716H258.763C254.33 258.361 249.055 259.394 247.032 263.853C249.334 264.876 248.7 266.358 252.604 266.466H252.563C253.913 266.611 255.272 266.66 256.629 266.612V266.618Z" fill="#535251"/>
<path d="M257.478 267.308C251.99 266.852 255.096 258.938 259.482 259.904C265.194 260.92 262.563 268.48 257.478 267.308Z" fill="#535251"/>
<path d="M301.982 258.254C296.555 257.658 298.05 250.168 302.673 249.545C311.127 248.902 309.272 258.856 301.982 258.254Z" fill="#535251"/>
<path d="M238.726 254.77C237.557 254.111 237.399 252.553 237.915 251.407C235.768 250.457 239.435 248.487 240.239 247.666L240.113 247.762C246.237 242.853 254.378 241.142 262.066 241.073C266.087 241.408 268.624 245.326 263.804 247.09C258.124 248.883 252.291 250.257 246.705 252.363C244.115 253.142 241.541 255.742 238.726 254.77Z" fill="#535251"/>
<path d="M285.102 239.366C273.386 233.124 317.327 217.168 315.345 228.5C313.638 233.01 300.694 233.491 295.865 236.398H295.896C292.42 237.627 288.886 239.578 285.102 239.366Z" fill="#535251"/>
<path d="M190.016 383.446C187.974 380.45 197.885 369.15 200.671 367.212C220.427 351.557 246.484 348.805 269.102 339.025L268.785 339.143C273.386 337.065 278.456 336.505 283.25 335.083C284.516 334.804 285.339 333.585 286.622 333.499C288.601 333.499 289.155 336.258 287.888 337.502C284.681 340.333 280.061 340.444 276.153 341.762C271.445 342.984 266.971 344.929 262.392 346.572C237.678 356.074 208.106 359.833 191.172 382.36C191.476 383.142 190.713 383.696 190.016 383.446Z" fill="#535251"/>
<path d="M501.773 606.18C501.387 576.156 498.578 545.056 494.031 514.969C490.206 485.725 485.799 456.487 478.788 427.813C473.313 405.897 467.835 382.746 454.109 364.358C446.997 357.366 437.425 353.432 428.305 349.739C414.373 343.703 399.57 340.476 385.469 334.981C377.911 332.036 370.201 329.483 362.772 326.199C359.682 325.094 356.284 322.988 356.648 319.232C356.578 318.481 357.31 316.888 358.01 318.085C358.029 321.54 361.683 322.24 364.343 322.981C368.431 324.109 372.439 325.486 376.483 326.76C389.149 331.25 401.713 335.944 414.674 339.545C431.975 346.785 453.938 351.174 463.098 369.391C469.073 380.732 473.788 392.827 477.401 405.105C489.184 448.177 495.494 492.423 500.475 536.733C500.475 536.644 500.456 536.559 500.447 536.467C500.887 541.427 509.037 611.861 501.773 606.18Z" fill="#535251"/>
<path d="M408.515 620.694C406.422 620.21 400.966 620.789 400.013 618.848C399.877 617.977 400.88 616.704 401.799 617.223C403.091 617.014 404.398 616.944 405.703 616.856C405.627 616.856 405.551 616.856 405.478 616.875C408.328 616.71 411.137 616.438 413.964 616.194H413.92C437.146 612.333 461.119 615.589 484.013 610.661L483.696 610.734C488.93 609.195 495.127 609.837 499.487 606.132L499.297 606.271C500.307 605.467 500.713 604.203 501.036 603C501.761 600.4 505.617 601.318 504.918 604.007C502.821 614.088 490.897 614.075 482.838 616.042C461.597 620.159 439.685 617.983 418.264 620.732L418.581 620.707C415.231 620.978 411.864 620.974 408.515 620.694Z" fill="#535251"/>
<path d="M377.686 570.782C377.176 569.198 378.364 567.561 379.982 567.406L379.852 567.434C397.046 562.839 414.803 560.188 432.415 557.854C428.505 532.328 422.97 507.087 419.477 481.491C419.477 478.422 415.734 462.438 419.034 462.099C420.012 461.988 420.579 463.049 420.246 463.892C426.978 495.389 432.694 527.08 437.393 558.966C437.956 564.809 428.102 562.3 424.439 563.919C409.737 566.576 394.674 567.612 380.349 571.982L380.431 571.963C379.342 572.41 378.057 571.995 377.686 570.782Z" fill="#535251"/>
<path d="M421.773 561.354C419.401 558.69 420.642 551.492 419.873 547.811C418.122 531.273 418.185 514.586 417.362 497.982C417.362 491.233 416.488 484.487 416.776 477.751C417.409 475.014 416.336 465.868 419.065 465.083C419.835 465.288 419.699 466.33 419.93 466.935C419.93 466.904 419.93 466.875 419.908 466.847C420 467.521 421.016 469.38 419.664 469.187C422.39 494.754 422.197 520.493 424.214 546.101L424.176 545.756C424.591 549.271 424.493 552.818 424.809 556.343C425.348 558.503 424.914 562.563 421.773 561.354Z" fill="#535251"/>
<path d="M423.878 485.104C423.223 485.012 422.501 485.104 421.865 484.978C419.331 482.691 426.006 481.643 427.336 480.762L427.124 480.845C441.468 475.09 456.797 472.243 471.673 468.196C475.789 467.052 479.972 466.166 484.095 465.029C486.017 464.411 489.269 463.445 489.098 466.641C488.465 470.124 483.614 469.456 481.005 470.584C470.872 473.117 460.872 476.094 450.774 478.726L451.091 478.65C442.266 480.724 433.476 482.989 424.581 484.731C424.507 484.849 424.403 484.945 424.279 485.011C424.156 485.076 424.018 485.108 423.878 485.104Z" fill="#535251"/>
<path d="M314.281 366.037C305.649 357.568 297.546 348.599 288.756 340.286L288.898 340.422L288.094 339.703C286.913 339.219 284.611 336.321 287.04 335.83C289.981 336.999 292.584 339.143 295.026 341.16C302.609 347.551 309.205 355.013 316.089 362.142C327.257 353.439 337.792 343.881 348.779 334.934C352.291 331.428 356.461 328.657 359.862 325.062C361.423 323.314 363.532 325.914 362.022 327.425C352.253 336.422 341.645 344.527 331.744 353.394C328.106 355.618 317.663 368.282 314.281 366.037Z" fill="#535251"/>
<path d="M345.113 389.172C338.463 383.174 332.298 376.574 324.882 371.437C322.954 369.537 314.778 366.651 316.548 363.56C321.953 358.012 328.498 353.705 333.992 348.242C341.503 341.021 349.017 333.8 356.791 326.871C357.908 326.177 360.711 322.345 361.436 324.771C361.771 325.35 361.046 326.167 360.486 325.699C355.79 331.136 351.04 336.517 345.797 341.442L345.828 341.407C337.836 349.825 328.638 356.818 319.844 364.324C329.344 369.961 338.086 376.773 345.619 384.865C353.368 369.416 361.423 354.012 369.393 338.642C370.758 335.583 372.243 332.188 374.459 329.73C375.805 329.046 377.027 330.642 376.492 331.909C373.617 339.035 369.273 345.442 365.796 352.273C361.642 361.67 356.297 370.452 351.759 379.655C349.976 382.084 348.833 390.163 345.113 389.172Z" fill="#535251"/>
<path d="M290.409 381.283C288.914 380.425 289.611 377.872 291.254 377.692C294.278 375.636 297.47 373.831 300.348 371.567L300.285 371.617L300.45 371.491L300.352 371.567C304.468 368.058 309.189 365.451 313.967 362.94C314.183 362.306 315.234 362.382 315.766 362.243C317.33 363.51 309.17 368.396 308.033 369.568C304.344 372.197 294.582 382.018 290.409 381.283Z" fill="#535251"/>
<path d="M291.552 382.749C284.127 377.109 282.667 366.037 278.459 358.018C276.701 354.383 275.207 350.626 273.528 346.956C272.712 345.353 271.274 343.083 273.259 341.74C274.437 340.91 275.792 341.794 276.109 343.051C276.603 343.314 277.968 344.27 276.742 344.451C279.77 351.238 282.661 358.069 286.397 364.488C287.23 367.573 297.891 382.607 291.552 382.749Z" fill="#535251"/>
<path d="M44.378 645.52C4.19875 645.929 0.557315 612.998 0.0253497 580.771C-0.392623 544.065 4.16392 507.451 15.541 472.458C19.2806 459.977 24.7966 448.126 30.8509 436.62C31.9813 434.59 35.0527 429.438 36.0977 431.062C50.0048 418.29 58.0603 406.173 76.9165 399.544L76.9799 399.519L77.154 399.452L77.059 399.497C77.7145 399.231 78.4839 398.923 79.2597 398.594C78.8417 396.082 82.7048 394.588 83.3413 397.425L83.3033 397.27C87.16 408.25 99.7689 418.879 108.781 426.109C131.149 440.893 164.656 441.016 184.199 421.358C193.382 412.374 200.925 400.963 202.964 388.181C207.08 384.339 227.589 396.694 231.462 400.19L231.481 400.209C233.045 401.194 235.116 403.341 232.349 404.326C229.844 408.016 229.182 412.836 230.284 417.102C225.918 421.764 224.309 429.707 229.933 434.109C225.747 439.046 226.234 447.892 231.814 451.689C229.312 458.083 233.314 467.147 240.768 467.252C241.718 472.341 242.627 477.909 246.997 481.266C247.165 481.202 247.345 481.176 247.524 481.191C247.703 481.207 247.876 481.262 248.031 481.353C248.186 481.444 248.318 481.569 248.418 481.719C248.518 481.868 248.583 482.038 248.608 482.216C248.616 482.241 248.623 482.266 248.627 482.292C248.626 482.298 248.626 482.305 248.627 482.311C248.84 486.951 248.355 491.628 248.998 496.265C248.821 497.956 250.654 503.973 248.083 503.847C244.182 505.221 240.35 506.776 236.525 508.347C236.598 508.307 236.675 508.274 236.753 508.246C230.208 510.494 224.334 514.216 218.518 517.969V517.902C218.66 519.121 216.839 519.824 216.557 518.431C216.029 515.128 216.282 511.742 216.14 508.372C213.369 511.109 209.781 512.699 206.403 514.523C207.175 517.826 208.005 521.117 208.711 524.439V524.391C208.993 525.468 208.119 526.795 206.928 526.608C197.993 534.706 189.272 544.081 184.605 555.111C174.307 557.645 164.596 562.395 154.84 566.357L154.894 566.329C139.581 572.628 123.568 578.319 107.327 582.357C110.81 591.941 114.11 602.116 116.975 612.086C117.336 614.772 122.001 619.909 118.093 621.375C118.186 621.742 118.176 622.128 118.064 622.49C117.953 622.852 117.744 623.176 117.46 623.427C120.246 624.026 122.821 621.46 125.234 620.377C138.659 613.727 151.452 607.728 163.351 598.842C159.609 607.212 156.639 616.026 154.223 624.95C154.184 624.894 154.14 624.841 154.093 624.792C156.043 628.555 150.157 628.121 147.928 628.504C142.545 628.954 137.206 629.72 131.858 630.461L132.121 630.42C122.441 631.5 112.821 632.871 103.106 633.571L103.011 633.587H103.03L102.84 633.615C93.0655 634.607 83.9176 637.492 74.5734 640.44C64.6782 642.812 54.536 645.28 44.378 645.52ZM66.1791 515.118C64.1874 541.249 62.2147 567.415 59.2572 593.467C64.5578 591.25 70.0833 589.581 75.5518 587.805C72.2238 561.423 68.6837 535.096 66.8979 508.553C66.6572 510.741 66.4007 512.927 66.1791 515.118ZM72.2143 533.075V533.116C72.1668 532.701 72.1193 532.261 72.0655 531.799C72.113 532.22 72.1573 532.644 72.2048 533.066C72.2063 533.045 72.2063 533.023 72.2048 533.002C72.2087 533.026 72.2108 533.051 72.2112 533.075H72.2143Z" fill="#FC8650"/>
<path d="M65.4318 495.527C64.4312 477.713 66.1727 475.128 67.4171 494.922V494.767C67.8288 496.084 65.7642 497.095 65.4318 495.527Z" fill="white"/>
<path d="M219.806 504.876C215.69 503.723 224.046 500.357 223.904 489.602C223.904 489.681 223.904 489.76 223.904 489.839C224.106 483.245 223.8 476.646 222.989 470.099C222.431 469.858 222.501 468.43 223.182 468.37C224.923 469.824 224.683 472.978 225.344 475.097C227.206 484.683 229.375 498.837 219.806 504.876Z" fill="white"/>
<path d="M238.545 410.91C236.693 408.561 240.176 406.255 239.812 409.153C240.968 410.033 239.657 412.142 238.545 410.91Z" fill="white"/>
<path d="M252.155 402.28C251.389 400.136 257.319 395.234 258.32 397.802C258.369 398.077 258.319 398.36 258.18 398.601C258.041 398.843 257.822 399.027 257.56 399.123C255.856 399.579 253.656 400.032 253.187 402.014V401.98C253.247 402.559 252.367 402.93 252.155 402.28Z" fill="white"/>
<path d="M273.326 407.547C271.743 407.724 265.457 406.448 268.392 404.276C269.377 404.561 270.235 405.368 271.41 405.295C272.408 405.523 274.418 404.934 274.371 406.496C274.317 406.993 273.899 407.579 273.326 407.547Z" fill="white"/>
<path d="M285.02 396.9C283.911 393.764 293.762 392.507 293.534 395.633C293.414 396.197 292.872 396.754 292.268 396.631C288.465 395.25 285.802 398.528 285.02 396.9Z" fill="white"/>
<path d="M109.769 327.289C107.552 326.338 110.244 322.3 110.13 320.413C111.358 311.951 114.062 303.454 120.579 297.626C121.038 297.626 120.813 298.218 120.617 298.434C117.906 301.601 115.642 305.252 114.49 309.297L114.528 309.161C112.894 312.34 112.774 327.308 109.769 327.289Z" fill="white"/>
<path d="M102.999 353.904C100.149 352.815 104.056 350.677 105.006 349.597C108.872 345.562 111.637 340.562 114.069 335.567C115.167 333.642 115.152 330.643 116.839 329.259C116.842 335.346 109.028 350.731 102.999 353.904Z" fill="white"/>
<path d="M74.5227 376.906C75.6025 361.587 86.112 352.561 97.8469 344.47C99.1134 343.048 100.314 341.417 100.766 339.535C100.795 339.348 100.894 339.178 101.044 339.06C101.193 338.943 101.381 338.886 101.571 338.902C103.695 342.025 95.5322 348.451 93.0212 350.126L93.056 350.097L92.961 350.17L93.0085 350.135C86.2449 355.079 80.6181 361.914 78.3573 370.088C77.268 372.064 77.9076 377.654 75.9064 378.132C75.7331 378.152 75.5574 378.136 75.3908 378.084C75.2243 378.032 75.0706 377.945 74.94 377.829C74.8093 377.713 74.7046 377.571 74.6327 377.412C74.5607 377.253 74.5233 377.081 74.5227 376.906Z" fill="white"/>
<path d="M90.9123 379.88C90.0668 378.103 92.9483 376.792 93.6734 375.31L93.6196 375.377C93.6449 375.348 93.6671 375.316 93.6924 375.285C95.2218 374.065 97.2579 368.229 98.4421 368.343C97.755 371.928 95.1268 375.754 92.9515 378.886L93.037 378.775C92.5303 379.383 91.783 380.707 90.9123 379.88Z" fill="white"/>
<path d="M49.3082 401.897C46.0974 398.613 59.6498 388.643 62.7403 387.62C64.1336 387.462 66.5179 384.365 67.2145 385.042C66.0239 388.602 59.9633 390.081 57.5631 393.324C55.4733 395.478 53.2314 397.565 51.6577 400.149C51.2397 401.093 50.5684 402.531 49.3082 401.897Z" fill="white"/>
<path d="M176.793 367.405C176.381 366.319 177.683 357.771 179.668 360.403C179.871 362.37 178.436 364.397 178.835 366.42C179.339 367.703 177.344 368.919 176.793 367.405Z" fill="white"/>
<path d="M116.564 362.617C115.354 361.464 117.599 360.083 117.868 358.86C118.343 357.945 118.372 356.859 118.818 355.956C119.274 355.275 120.132 356.039 119.673 356.637C119.214 358.287 118.641 362.683 116.564 362.617Z" fill="white"/>
<path d="M231.88 214.261C233.21 208.877 240.452 207.391 245.296 208.075L246.769 208.205H246.617C249.065 208.497 251.547 208.124 253.801 207.125C253.92 207.089 254.045 207.076 254.168 207.088C254.292 207.1 254.411 207.136 254.521 207.195C254.63 207.254 254.726 207.335 254.804 207.431C254.881 207.528 254.939 207.639 254.973 207.759C255.131 210.292 250.477 210.631 248.577 210.774C242.519 209.938 235.787 208.614 232.637 214.951C232.541 214.961 232.443 214.951 232.351 214.921C232.259 214.891 232.175 214.842 232.103 214.776C232.031 214.711 231.975 214.631 231.936 214.542C231.898 214.454 231.879 214.358 231.88 214.261Z" fill="white"/>
<path d="M246.74 201.586C246.525 200.573 248.146 200.354 248.767 199.848C251.762 197.732 255.527 198.264 258.795 196.959L258.728 196.988C259.134 196.744 259.713 196.791 259.859 197.305C259.574 199.759 255.021 198.92 253.168 199.36C251.132 199.145 247.684 202.194 246.74 201.586Z" fill="white"/>
<path d="M271.86 204.231C270.856 203.695 272.075 203.205 272.734 203.353C275.2 203.113 277.483 201.941 279.456 200.503C282.939 197.925 285.906 194.001 290.418 193.339C291.226 193.244 292.54 192.943 292.597 194.125C292.614 194.394 292.533 194.66 292.371 194.875C292.208 195.09 291.974 195.24 291.71 195.297C290.966 195.414 290.216 195.493 289.475 195.613L289.608 195.582C283.265 197.542 279.098 204.715 271.86 204.231Z" fill="white"/>
<path d="M280.276 192.586C279.643 189.444 296.45 180.972 297.502 185.4C297.366 186.825 295.814 186.334 294.836 186.369C289.909 186.328 285.127 188.624 281.593 191.971L281.612 191.955C281.59 191.974 281.571 191.997 281.552 192.016L281.578 191.99C281.226 192.31 280.802 193.077 280.276 192.586Z" fill="white"/>
<path d="M303.645 201.241C302.983 201.108 299.459 201.092 300.561 199.955C300.719 199.927 300.789 200.082 300.922 200.12H300.893C306.149 201.453 310.874 199.005 315.063 196.088C315.87 195.807 317.317 194.685 317.821 195.873C317.891 196.107 317.878 196.358 317.783 196.583C317.688 196.807 317.518 196.992 317.302 197.105C315.845 197.729 314.427 198.441 313.055 199.236H313.078C311.285 200.294 309.354 201.235 307.239 201.355H307.267C306.059 201.422 304.847 201.384 303.645 201.241Z" fill="white"/>
<path d="M331.073 192.738C325.126 191.889 319.195 188.421 313.388 192.035C312.799 192.297 311.827 193.096 311.46 192.149C311.976 189.482 320.436 188.301 322.951 188.725C325.8 189.415 328.517 190.521 331.5 190.736C332.668 191.002 332.203 192.918 331.073 192.738Z" fill="white"/>
<path d="M329.838 205.197C329.911 204.313 330.902 204.563 331.516 204.503H331.43C332.011 204.424 332.582 204.281 333.131 204.076C333.76 203.83 334.372 203.544 334.964 203.221H334.945C335.724 202.878 336.399 202.099 337.26 202.049C338.093 202.21 338.042 203.468 337.333 203.772C335.775 204.335 330.648 207.22 329.838 205.197Z" fill="white"/>
<path d="M334.302 215.676C333.527 215.36 334.385 214.764 334.914 214.932C336.364 214.786 337.649 213.982 338.634 212.931C338.7 212.868 338.778 212.821 338.864 212.792C338.949 212.762 339.04 212.752 339.13 212.761C339.22 212.769 339.307 212.797 339.385 212.842C339.464 212.887 339.531 212.949 339.584 213.022C340.011 215.119 335.844 215.667 334.302 215.676Z" fill="white"/>
<path d="M287.736 654.356C286.505 627.589 283.905 600.302 285.903 573.597C286.346 573.281 286.619 573.765 286.568 574.189C287.363 584.356 287.081 594.553 287.132 604.739C287.594 618.316 288.132 631.899 289.063 645.451C289.149 648.098 289.212 650.746 289.51 653.368C289.915 654.394 288.328 655.538 287.736 654.356Z" fill="white"/>
<path d="M308.068 583.323C306.969 580.609 303.515 575.83 307.609 574.161C310.563 572.869 312.992 570.699 316.022 569.509C322.412 566.155 329.366 564.482 336.49 563.627C339.774 562.677 340.24 564.521 340.04 567.38C340.145 569.99 340.42 573.619 336.747 573.201C331.389 573.927 326.446 576.438 321.32 578.05C318.354 579.234 315.565 580.82 313.03 582.763C311.615 584.143 309.265 585.974 308.068 583.323ZM310.658 580.314L310.728 580.248H310.63L310.658 580.314Z" fill="white"/>
<path d="M307.603 585.838C305.703 586.303 305.617 572.698 307.09 576.875C307.147 577.018 307.026 577.243 306.849 577.167C306.947 577.781 307.096 578.386 307.242 578.994C307.244 578.973 307.244 578.952 307.242 578.931C307.558 580.33 308.037 581.683 308.394 583.07C311.412 581.17 314.442 579.231 317.549 577.461L317.514 577.48C323.167 574.372 329.214 572.04 335.49 570.547H335.455C336.478 570.452 337.545 569.696 338.545 570C339.407 570.497 339.122 571.941 338.207 572.216C334.04 573.195 330.028 574.617 325.971 575.95H325.994C323.593 577.002 321.155 578.003 318.872 579.295L318.964 579.241L318.609 579.444L318.518 579.494H318.543L318.35 579.605C314.689 581.436 311.361 584.406 307.603 585.838Z" fill="white"/>
</g>
<defs>
<clipPath id="clip0_1601_11899">
<rect width="505" height="488" fill="white" transform="translate(0 172)"/>
</clipPath>
</defs>
</svg>
