<?xml version="1.0" encoding="UTF-8"?>
<svg id="_Слой_1" data-name="Слой 1" xmlns="http://www.w3.org/2000/svg" viewBox="0 0 614.81 313.79">
  <defs>
    <style>
      .cls-1 {
        fill: #ef7d00;
      }

      .cls-1, .cls-2 {
        fill-rule: evenodd;
        stroke-width: 0px;
      }

      .cls-2 {
        fill: #273276;
      }

      .cls-3 {
        stroke: #273276;
      }

      .cls-3, .cls-4 {
        fill: none;
        stroke-linecap: round;
        stroke-linejoin: round;
        stroke-width: .25px;
      }

      .cls-4 {
        stroke: #ef7d00;
      }
    </style>
  </defs>
  <polyline class="cls-1" points="614.69 225.9 614.24 234.78 612.89 243.56 610.66 252.17 607.57 260.51 603.66 268.49 598.95 276.04 593.51 283.07 587.39 289.51 580.64 295.3 573.34 300.38 565.57 304.7 557.4 308.2 548.92 310.86 540.21 312.65 531.36 313.55 522.47 313.55 513.63 312.65 504.92 310.86 496.44 308.2 488.27 304.7 480.49 300.38 473.2 295.3 466.45 289.51 460.33 283.07 454.88 276.04 450.18 268.49 446.27 260.51 443.18 252.17 440.95 243.56 439.6 234.78 439.15 225.9 439.6 217.02 440.95 208.23 443.18 199.62 446.27 191.29 450.18 183.31 454.88 175.76 460.33 168.73 466.45 162.29 473.2 156.5 480.49 151.42 488.27 147.1 496.44 143.59 504.92 140.93 513.63 139.14 522.47 138.25 531.36 138.25 540.21 139.14 548.92 140.93 557.4 143.59 565.57 147.1 573.34 151.42 580.64 156.5 587.39 162.29 593.51 168.73 598.95 175.76 603.66 183.31 607.57 191.29 610.66 199.62 612.89 208.23 614.24 217.02 614.69 225.9"/>
  <path class="cls-4" d="m614.69,225.9c0,48.47-39.3,87.77-87.77,87.77s-87.77-39.29-87.77-87.77m0,0c0-48.47,39.29-87.77,87.77-87.77s87.77,39.29,87.77,87.77"/>
  <polyline class="cls-2" points="520.65 125.56 520.19 133.12 518.82 140.57 516.57 147.8 513.46 154.7 509.55 161.18 504.88 167.14 499.52 172.5 493.56 177.17 487.08 181.09 480.17 184.2 472.94 186.45 465.49 187.81 457.93 188.27 450.38 187.81 442.93 186.45 435.7 184.2 428.79 181.09 422.31 177.17 416.35 172.5 410.99 167.14 406.32 161.18 402.41 154.7 399.3 147.8 397.04 140.57 395.68 133.12 395.22 125.56 395.68 118 397.04 110.55 399.3 103.32 402.41 96.41 406.32 89.93 410.99 83.97 416.35 78.62 422.31 73.94 428.79 70.03 435.7 66.92 442.93 64.67 450.38 63.3 457.93 62.84 465.49 63.3 472.94 64.67 480.17 66.92 487.08 70.03 493.56 73.94 499.52 78.62 504.88 83.97 509.55 89.93 513.46 96.41 516.57 103.32 518.82 110.55 520.19 118 520.65 125.56"/>
  <path class="cls-3" d="m520.65,125.56c0,34.64-28.08,62.71-62.71,62.71s-62.71-28.08-62.71-62.71m0,0c0-34.63,28.08-62.71,62.71-62.71s62.71,28.08,62.71,62.71"/>
  <path class="cls-2" d="m477.7,240.68l-.86-3.72.07-3.82.98-3.69,1.85-3.34,2.6-2.79,3.2-2.09,3.35-1.45,3.51-1.02,3.57-.63,3.61-.39,4.93-.3,1.49-.04h.4s.11,0,.11,0h.03v-.5s-.27-2.02-.27-2.02l-.79-1.88-1.49-1.54-1.91-.97-1.48-.39-.45-.07h-.12s-.03-.01-.03-.01h-.01l-4.33-.2-4.32.36-4.24.91-4.09,1.44-2.77-8.94,4.98-1.52,5.13-.92,5.21-.31h6.27l4.19.47,3.98,1.39,3.57,2.24,2.98,2.98,2.24,3.57,1.39,3.98.47,4.18v31.36h-12.54v-6.27l-2.53,2.42-2.95,1.9-3.26,1.3-3.44.66h-3.51s-3.79-.47-3.79-.47l-3.57-1.37-3.13-2.19-2.51-2.88-1.74-3.4m15.11-7.52l-.38,2.15.38,2.15,1.09,1.89,1.67,1.4,2.05.75h2.18l2.05-.75,2.09-1.55,1.54-2.1.84-2.46.3-3.62-.03-3.62h-3.77l-3.73.56-1.94.74-1.75,1.12-1.48,1.46-1.09,1.88"/>
  <path class="cls-3" d="m520.65,250.98h-12.54m0,0v-6.27m0,0c-3.48,4.04-8.55,6.36-13.88,6.36-.6,0-1.2-.03-1.79-.09m0,0c-8.66,0-15.68-7.02-15.68-15.68,0-5.99,3.41-11.45,8.79-14.08m0,0c2.17-1.1,4.48-1.93,6.86-2.46m0,0c2.37-.5,4.77-.85,7.19-1.03m0,0c1.64-.14,3.28-.24,4.93-.3m0,0c.5-.02.99-.03,1.49-.04m0,0c.14,0,.27,0,.4,0m0,0s.07,0,.11,0m0,0h.02m0,0h0m0,0h0m0,0v.1m0-.6c0,.2,0,.4,0,.6m-1.06-4.51c.69,1.17,1.05,2.49,1.05,3.85v.05m-4.44-6.41c1.38.43,2.57,1.32,3.39,2.51m-4.87-2.9c.5.09,1,.22,1.48.39m-1.93-.45c.15.02.3.04.45.07m-.57-.08s.08,0,.12.01m-.15-.01h.03m-.04,0h0m0,0h0m0,0h0m-16.97,2.51c4.2-1.79,8.71-2.72,13.28-2.72,1.23,0,2.46.07,3.69.2m-16.97,2.51l-2.77-8.94m0,0c4.9-1.82,10.09-2.76,15.32-2.76m0,0h6.27m0,0c10.39,0,18.81,8.42,18.81,18.81m0,0v31.36m-14.35-16.36c-.47,2.62-2.12,4.87-4.47,6.11m4.74-13.35c.04.73.06,1.45.06,2.18,0,1.69-.11,3.38-.33,5.06m-7.23-6.68c1.84-.42,3.72-.64,5.61-.64.63,0,1.26.02,1.89.07m-12.67,3.89c1.33-1.62,3.14-2.79,5.17-3.33m2.76,12.79c-.95.55-2.04.84-3.14.84-3.46,0-6.27-2.81-6.27-6.27,0-1.47.52-2.91,1.47-4.03"/>
  <polyline class="cls-1" points="169.45 250.98 169.45 200.81 181.99 200.81 181.99 205.75 181.99 213.36 181.99 218.09 200.81 218.09 200.81 200.81 213.35 200.81 213.35 205.75 213.35 213.36 213.35 225.9 213.35 240.02 213.35 247.62 213.35 250.98 200.81 250.98 200.81 237.24 200.81 227.48 181.99 227.48 181.99 233.48 181.99 240.02 181.99 247.62 181.99 250.98 169.45 250.98"/>
  <path class="cls-4" d="m169.45,200.81v50.17m12.54-50.17h-12.54m12.54,4.94v-4.94m0,12.54v-7.6m0,12.34v-4.73m18.81,4.73h-18.81m18.81-17.28v17.28m12.54-17.28h-12.54m12.54,4.94v-4.94m0,12.54v-7.6m0,20.14v-12.54m0,26.66v-14.12m0,21.73v-7.61m0,10.96v-3.36m-12.54,3.36h12.54m-12.54-13.74v13.74m0-23.5v9.77m-18.81-9.77h18.81m-18.81,6v-6m0,12.54v-6.54m0,14.14v-7.61m0,10.96v-3.36m-12.54,3.36h12.54"/>
  <polyline class="cls-2" points="533.19 250.98 533.19 200.81 545.73 200.81 564.55 200.81 577.09 200.81 577.09 205.75 577.09 213.36 577.09 225.9 577.09 240.02 577.09 247.62 577.09 250.98 564.55 250.98 564.55 237.24 564.55 213.36 545.73 213.36 545.73 233.48 545.73 240.02 545.73 247.62 545.73 250.98 533.19 250.98"/>
  <path class="cls-3" d="m533.19,200.81v50.17m12.54-50.17h-12.54m31.36,0h-18.81m31.36,0h-12.54m12.54,4.94v-4.94m0,12.54v-7.6m0,20.14v-12.54m0,26.66v-14.12m0,21.73v-7.61m0,10.96v-3.36m-12.54,3.36h12.54m-12.54-13.74v13.74m0-37.63v23.89m-18.81-23.89h18.81m-18.81,20.13v-20.13m0,26.66v-6.54m0,14.14v-7.61m0,10.96v-3.36m-12.54,3.36h12.54"/>
  <path class="cls-1" d="m386.44,267.29h-11.29v-27.27h3.83l3.05-4.59,2.29-5.01,1.48-5.31.63-5.48v-18.81h40.14v39.21h5.02v27.27h-11.29v-16.31h-33.87v16.31m13.8-55.19l-.22,6.74-.92,6.69-1.6,6.55-2.28,6.36h15.68v-26.34h-10.66"/>
  <path class="cls-4" d="m375.15,267.29h11.29m-11.29-27.27v27.27m3.83-27.27h-3.83m11.29-20.39c-.27,7.42-2.87,14.56-7.45,20.39m7.45-39.21v18.81m8.78-18.81h-8.78m27.59,0h-18.82m31.36,0h-12.54m12.54,4.94v-4.94m0,12.54v-7.6m0,20.14v-12.54m0,26.66v-14.12m5.02,14.12h-5.02m5.02,7.61v-7.61m0,27.27v-19.67m-11.29,19.67h11.29m-11.29-16.31v16.31m-25.09-16.31h25.09m-33.87,0h8.78m-8.78,16.31v-16.31m13.8-38.88c0,.42.01.83.01,1.25,0,8.61-1.71,17.14-5.03,25.09m15.68,0h-15.68m15.68-26.34v26.34m-10.66-26.34h10.66"/>
  <path class="cls-1" d="m11.41,267.29H.13v-27.27h3.84l3.05-4.59,2.29-5.01,1.48-5.31.63-5.48v-18.81h40.14v39.21h5.02v27.27h-11.29v-16.31H11.41v16.31m13.8-55.19l-.22,6.74-.92,6.69-1.6,6.55-2.28,6.36h15.68v-26.34h-10.66"/>
  <path class="cls-4" d="m.13,267.29h11.29M.13,240.02v27.27m3.84-27.27H.13m11.29-20.39c-.27,7.42-2.87,14.56-7.45,20.39m7.45-39.21v18.81m8.78-18.81h-8.78m27.59,0h-18.81m31.36,0h-12.54m12.54,4.94v-4.94m0,12.54v-7.6m0,20.14v-12.54m0,26.66v-14.12m5.02,14.12h-5.02m5.02,7.61v-7.61m0,27.27v-19.67m-11.29,19.67h11.29m-11.29-16.31v16.31m-25.09-16.31h25.09m-33.86,0h8.78m-8.78,16.31v-16.31m13.8-38.88c0,.42.01.83.01,1.25,0,8.61-1.71,17.14-5.03,25.09m15.68,0h-15.68m15.68-26.34v26.34m-10.66-26.34h10.66"/>
  <path class="cls-1" d="m63.79,240.68l-.86-3.72.06-3.82.98-3.69,1.85-3.34,2.6-2.79,3.2-2.09,3.35-1.45,3.51-1.02,3.58-.63,3.61-.39,4.93-.3,1.49-.04h.4s.1,0,.1,0h.03v-.5s-.27-2.02-.27-2.02l-.79-1.88-1.49-1.54-1.91-.97-1.48-.39-.45-.07h-.12s-.03-.01-.03-.01h0l-4.33-.2-4.32.36-4.24.91-4.09,1.44-2.77-8.94,4.98-1.52,5.13-.92,5.2-.31h6.27l4.19.47,3.98,1.39,3.57,2.24,2.98,2.98,2.24,3.57,1.39,3.98.47,4.18v31.36h-12.54v-6.27l-2.53,2.42-2.95,1.9-3.25,1.3-3.44.66h-3.5s-3.79-.47-3.79-.47l-3.57-1.37-3.13-2.19-2.51-2.88-1.74-3.4m15.11-7.52l-.38,2.15.38,2.15,1.09,1.89,1.67,1.4,2.05.75h2.18l2.05-.75,2.09-1.55,1.54-2.1.84-2.46.3-3.62-.03-3.62h-3.77l-3.73.56-1.94.74-1.75,1.12-1.48,1.46-1.09,1.88"/>
  <path class="cls-4" d="m106.74,250.98h-12.54m0,0v-6.27m0,0c-3.48,4.04-8.55,6.36-13.88,6.36-.6,0-1.2-.03-1.79-.09m0,0c-8.66,0-15.68-7.02-15.68-15.68,0-5.99,3.41-11.45,8.79-14.08m0,0c2.17-1.1,4.48-1.93,6.85-2.46m0,0c2.37-.5,4.77-.85,7.19-1.03m0,0c1.64-.14,3.28-.24,4.93-.3m0,0c.5-.02.99-.03,1.49-.04m0,0c.13,0,.27,0,.4,0m0,0s.07,0,.1,0m0,0h.03m0,0h0m0,0h0m0,0s0,.07,0,.1m0-.6c0,.2,0,.4,0,.6m-1.06-4.51c.69,1.17,1.05,2.49,1.05,3.85v.05m-4.44-6.41c1.38.43,2.57,1.32,3.39,2.51m-4.88-2.9c.5.09,1,.22,1.48.39m-1.93-.45c.15.02.3.04.45.07m-.57-.08s.08,0,.12.01m-.15-.01h.03m-.04,0h0m0,0h0m0,0h0m-16.97,2.51c4.2-1.79,8.71-2.72,13.28-2.72,1.23,0,2.46.07,3.69.2m-16.97,2.51l-2.77-8.94m0,0c4.9-1.82,10.09-2.76,15.32-2.76m0,0h6.27m0,0c10.39,0,18.81,8.42,18.81,18.81m0,0v31.36m-14.35-16.36c-.47,2.62-2.12,4.87-4.47,6.11m4.74-13.35c.04.73.06,1.45.06,2.18,0,1.69-.11,3.38-.33,5.06m-7.23-6.68c1.84-.42,3.72-.64,5.61-.64.63,0,1.26.02,1.89.07m-12.67,3.89c1.33-1.62,3.14-2.79,5.17-3.33m2.76,12.79c-.95.55-2.03.84-3.13.84-3.46,0-6.27-2.81-6.27-6.27,0-1.47.52-2.91,1.47-4.03"/>
  <polyline class="cls-1" points="163.18 200.8 144.37 250.98 142.18 255.46 139.37 259.56 135.98 263.2 132.09 266.31 127.79 268.81 123.16 270.65 118.32 271.79 115.39 259.4 119.42 258.54 123.2 256.91 126.6 254.58 129.47 251.63 130.14 249.36 130.14 246.99 129.47 244.71 113.01 200.8 129.55 200.8 138.1 235.3 146.64 200.8 163.18 200.8"/>
  <path class="cls-4" d="m163.18,200.8l-18.81,50.19m0,0c-4.42,11.04-14.31,18.94-26.05,20.81m0,0l-2.93-12.39m14.08-7.77c-3.48,4.35-8.55,7.14-14.08,7.77m14.08-14.69c.49,1.09.75,2.26.75,3.46s-.26,2.37-.75,3.46m0-6.92l-16.46-43.92m0,0h16.54m0,0l8.55,34.51m0,0l8.55-34.51m0,0h16.54"/>
  <polyline class="cls-1" points="262.83 202.4 260.7 212.28 257.31 211.1 253.74 210.76 250.2 211.27 246.87 212.62 243.95 214.7 241.62 217.42 239.99 220.62 239.16 224.1 239.18 227.69 240.05 231.17 241.72 234.34 244.09 237.03 247.03 239.09 250.37 240.39 253.92 240.86 257.49 240.48 260.86 239.26 263.05 249.39 259.97 250.34 256.8 250.89 246.9 250.89 242.08 250.24 237.49 248.67 233.27 246.24 229.61 243.04 226.63 239.2 224.45 234.86 223.14 230.17 222.76 225.33 223.33 220.5 224.81 215.87 227.16 211.61 230.28 207.89 234.07 204.83 238.37 202.57 243.02 201.18 247.86 200.7 253.4 200.7 258.19 201.15 262.83 202.4"/>
  <path class="cls-4" d="m260.7,212.28l2.13-9.88m-1.97,36.86c-2.1,1.05-4.4,1.6-6.75,1.6-8.31,0-15.05-6.74-15.05-15.05s6.74-15.05,15.05-15.05c2.28,0,4.53.52,6.59,1.52m2.35,37.12l-2.19-10.13m2.19,10.13c-2.01.77-4.11,1.27-6.25,1.5m-9.9,0h9.9m-9.9,0c-13.48-.52-24.14-11.6-24.14-25.09s11.24-25.1,25.1-25.1m5.53,0h-5.53m5.53,0c3.22.02,6.41.59,9.44,1.69"/>
  <path class="cls-1" d="m270.74,240.68l-.86-3.72.06-3.82.98-3.69,1.85-3.34,2.6-2.79,3.2-2.09,3.35-1.45,3.51-1.02,3.58-.63,3.61-.39,4.93-.3,1.49-.04h.41s.1,0,.1,0h.03v-.5s-.27-2.02-.27-2.02l-.79-1.88-1.49-1.54-1.91-.97-1.48-.39-.45-.07h-.12s-.03-.01-.03-.01h0l-4.33-.2-4.32.36-4.24.91-4.08,1.44-2.77-8.94,4.98-1.52,5.13-.92,5.2-.31h6.27l4.19.47,3.98,1.39,3.57,2.24,2.98,2.98,2.24,3.57,1.39,3.98.47,4.18v31.36h-12.54v-6.27l-2.53,2.42-2.94,1.9-3.25,1.3-3.44.66h-3.5s-3.79-.47-3.79-.47l-3.57-1.37-3.13-2.19-2.51-2.88-1.74-3.4m15.11-7.52l-.38,2.15.38,2.15,1.09,1.89,1.67,1.4,2.05.75h2.18l2.05-.75,2.09-1.55,1.54-2.1.84-2.46.3-3.62-.03-3.62h-3.77l-3.73.56-1.94.74-1.75,1.12-1.48,1.46-1.09,1.88"/>
  <path class="cls-4" d="m313.69,250.98h-12.54m0,0v-6.27m0,0c-3.48,4.04-8.55,6.36-13.89,6.36-.6,0-1.2-.03-1.79-.09m0,0c-8.66,0-15.68-7.02-15.68-15.68,0-5.99,3.41-11.45,8.78-14.08m0,0c2.17-1.1,4.48-1.93,6.86-2.46m0,0c2.37-.5,4.77-.85,7.19-1.03m0,0c1.64-.14,3.28-.24,4.93-.3m0,0c.5-.02.99-.03,1.49-.04m0,0c.14,0,.27,0,.41,0m0,0s.07,0,.1,0m0,0h.02m0,0h0m0,0h0m0,0v.1m0-.6c0,.2,0,.4,0,.6m-1.06-4.51c.69,1.17,1.05,2.49,1.05,3.85,0,.02,0,.04,0,.05m-4.44-6.41c1.38.43,2.58,1.32,3.39,2.51m-4.87-2.9c.5.09,1,.22,1.48.39m-1.93-.45c.15.02.3.04.45.07m-.57-.08s.08,0,.12.01m-.15-.01h.03m-.04,0h0m0,0h0m0,0h0m-16.97,2.51c4.2-1.79,8.71-2.72,13.28-2.72,1.23,0,2.46.07,3.69.2m-16.97,2.51l-2.77-8.94m0,0c4.9-1.82,10.09-2.76,15.32-2.76m0,0h6.27m0,0c10.39,0,18.81,8.42,18.81,18.81m0,0v31.36m-14.35-16.36c-.47,2.62-2.11,4.87-4.47,6.11m4.74-13.35c.04.73.06,1.45.06,2.18,0,1.69-.11,3.38-.33,5.06m-7.23-6.68c1.84-.42,3.72-.64,5.61-.64.63,0,1.26.02,1.9.07m-12.67,3.89c1.33-1.62,3.14-2.79,5.17-3.33m2.76,12.79c-.95.55-2.04.84-3.13.84-3.46,0-6.27-2.81-6.27-6.27,0-1.47.52-2.91,1.47-4.03"/>
  <polyline class="cls-1" points="357.9 182 357.47 185.24 356.22 188.27 354.22 190.87 351.63 192.86 348.6 194.11 345.36 194.54 342.11 194.11 339.08 192.86 336.49 190.87 334.49 188.27 333.24 185.24 332.81 182 340.34 182 340.72 183.92 341.81 185.55 343.43 186.63 345.36 187.02 347.27 186.63 348.9 185.55 349.99 183.92 350.37 182 357.9 182"/>
  <path class="cls-4" d="m357.9,182c0,6.93-5.62,12.54-12.54,12.54s-12.54-5.62-12.54-12.54m7.53,0h-7.53m17.56,0c0,2.77-2.25,5.02-5.02,5.02s-5.02-2.24-5.02-5.02m17.56,0h-7.53"/>
  <polyline class="cls-1" points="367 200.8 367 250.98 354.46 250.98 354.46 246.02 354.46 238.42 354.46 216.47 344.55 239.19 339.41 250.98 323.1 250.98 323.1 235.3 323.1 200.8 335.64 200.8 335.64 235.3 350.69 200.8 354.46 200.8 367 200.8"/>
  <path class="cls-4" d="m367,250.98v-50.19m-12.54,50.19h12.54m-12.54-4.96v4.96m0-12.56v7.6m0-29.55v21.95m-9.91.77l9.91-22.72m-15.05,34.51l5.14-11.79m-21.45,11.79h16.31m-16.31-15.68v15.68m0-50.19v34.51m12.54-34.51h-12.54m12.54,34.51v-34.51m15.05,0l-15.05,34.51m18.81-34.51h-3.77m16.31,0h-12.54"/>
  <polyline class="cls-1" points="595.91 44.03 595.46 50.28 594.13 56.4 591.94 62.27 588.94 67.77 585.18 72.78 580.76 77.21 575.74 80.96 570.24 83.97 564.37 86.15 558.25 87.49 552 87.93 545.76 87.49 539.64 86.15 533.77 83.97 528.27 80.96 523.25 77.21 518.82 72.78 515.07 67.77 512.07 62.27 509.88 56.4 508.55 50.28 508.1 44.03 508.55 37.78 509.88 31.66 512.07 25.79 515.07 20.29 518.82 15.28 523.25 10.85 528.27 7.1 533.77 4.09 539.64 1.9 545.76 .57 552 .13 558.25 .57 564.37 1.9 570.24 4.09 575.74 7.1 580.76 10.85 585.18 15.28 588.94 20.29 591.94 25.79 594.13 31.66 595.46 37.78 595.91 44.03"/>
  <path class="cls-4" d="m595.91,44.03c0,24.25-19.66,43.9-43.9,43.9s-43.9-19.66-43.9-43.9m0,0c0-24.25,19.66-43.9,43.9-43.9s43.9,19.66,43.9,43.9"/>
</svg>