<svg width="50" height="43" viewBox="0 0 50 43" fill="none" xmlns="http://www.w3.org/2000/svg">
<path d="M44.6312 4.8611C43.4616 3.74289 42.0717 2.85565 40.5414 2.25027C39.011 1.64488 37.3703 1.33325 35.7133 1.33325C34.0563 1.33325 32.4155 1.64488 30.8852 2.25027C29.3548 2.85565 27.965 3.74289 26.7953 4.8611L25.0001 6.59364L23.2048 4.8611C22.0352 3.74289 20.6453 2.85565 19.115 2.25027C17.5846 1.64488 15.9439 1.33325 14.2869 1.33325C12.6299 1.33325 10.9891 1.64488 9.45878 2.25027C7.92843 2.85565 6.53858 3.74289 5.36892 4.8611C0.426158 9.57005 0.123064 17.522 6.34815 23.5636L25.0001 41.3333L43.652 23.5636C49.8771 17.522 49.574 9.57005 44.6312 4.8611Z" fill="white" stroke="white" stroke-width="2" stroke-linecap="round" stroke-linejoin="round"/>
</svg>
