<svg width="48" height="41" viewBox="0 0 48 41" fill="none" xmlns="http://www.w3.org/2000/svg">
<path d="M43.6312 3.86122C42.4616 2.74301 41.0717 1.85578 39.5414 1.25039C38.011 0.645003 36.3703 0.333374 34.7133 0.333374C33.0563 0.333374 31.4155 0.645003 29.8852 1.25039C28.3548 1.85578 26.965 2.74301 25.7953 3.86122L24.0001 5.59376L22.2048 3.86122C21.0352 2.74301 19.6453 1.85578 18.115 1.25039C16.5846 0.645003 14.9439 0.333374 13.2869 0.333374C11.6299 0.333374 9.98912 0.645003 8.45878 1.25039C6.92843 1.85578 5.53858 2.74301 4.36892 3.86122C-0.573841 8.57017 -0.876936 16.5221 5.34815 22.5638L24.0001 40.3334L42.652 22.5638C48.8771 16.5221 48.574 8.57017 43.6312 3.86122Z" fill="#C0ACA1" fill-opacity="0.2"/>
</svg>
