<svg width="40" height="40" viewBox="0 0 40 40" fill="none" xmlns="http://www.w3.org/2000/svg">
<circle cx="20" cy="20" r="20" fill="#D8546B"/>
<path d="M29.8157 13.4306C29.2309 12.8715 28.536 12.4279 27.7708 12.1252C27.0056 11.8225 26.1853 11.6667 25.3568 11.6667C24.5283 11.6667 23.7079 11.8225 22.9427 12.1252C22.1775 12.4279 21.4826 12.8715 20.8978 13.4306L20.0002 14.2968L19.1025 13.4306C18.5177 12.8715 17.8228 12.4279 17.0576 12.1252C16.2924 11.8225 15.4721 11.6667 14.6436 11.6667C13.815 11.6667 12.9947 11.8225 12.2295 12.1252C11.4643 12.4279 10.7694 12.8715 10.1846 13.4306C7.7132 15.7851 7.56165 19.761 10.6742 22.7818L20.0002 31.6667L29.3261 22.7818C32.4387 19.761 32.2871 15.7851 29.8157 13.4306Z" fill="white" stroke="white" stroke-width="2" stroke-linecap="round" stroke-linejoin="round"/>
</svg>
