<svg width="40" height="40" viewBox="0 0 40 40" fill="none" xmlns="http://www.w3.org/2000/svg">
<circle cx="20" cy="20" r="20" fill="#6C5036" fill-opacity="0.3"/>
<path d="M29.8157 13.4305C29.2309 12.8714 28.536 12.4278 27.7708 12.1251C27.0056 11.8224 26.1853 11.6666 25.3568 11.6666C24.5283 11.6666 23.7079 11.8224 22.9427 12.1251C22.1775 12.4278 21.4826 12.8714 20.8978 13.4305L20.0002 14.2968L19.1025 13.4305C18.5177 12.8714 17.8228 12.4278 17.0576 12.1251C16.2924 11.8224 15.4721 11.6666 14.6436 11.6666C13.815 11.6666 12.9947 11.8224 12.2295 12.1251C11.4643 12.4278 10.7694 12.8714 10.1846 13.4305C7.7132 15.785 7.56165 19.761 10.6742 22.7818L20.0002 31.6666L29.3261 22.7818C32.4387 19.761 32.2871 15.785 29.8157 13.4305Z" stroke="white" stroke-width="2" stroke-linecap="round" stroke-linejoin="round"/>
</svg>
