<svg width="40" height="40" viewBox="0 0 40 40" fill="none" xmlns="http://www.w3.org/2000/svg">
<circle cx="20" cy="20" r="20" fill="#C0ACA1" fill-opacity="0.2"/>
<circle cx="20" cy="19.9998" r="3.33333" stroke="#535251" stroke-width="2" stroke-linecap="round" stroke-linejoin="round"/>
<path d="M11.7131 12.3164L12.2131 11.4504C11.8091 11.2171 11.2974 11.2942 10.98 11.6362L11.7131 12.3164ZM9.20506 16.6665L8.24951 16.3717C8.11195 16.8176 8.30099 17.2993 8.70506 17.5326L9.20506 16.6665ZM9.20291 23.3345L8.70291 22.4685C8.29846 22.702 8.10949 23.1844 8.24771 23.6305L9.20291 23.3345ZM11.7135 27.6831L10.9796 28.3623C11.2968 28.7051 11.8091 28.7826 12.2135 28.5491L11.7135 27.6831ZM17.4893 31.0153L16.4893 31.0153C16.4893 31.4818 16.8119 31.8864 17.2668 31.9902L17.4893 31.0153ZM22.5106 31.0183L22.7331 31.9932C23.188 31.8894 23.5106 31.4849 23.5106 31.0183L22.5106 31.0183ZM28.2868 27.6834L27.7868 28.5494C28.1909 28.7827 28.7026 28.7056 29.0199 28.3636L28.2868 27.6834ZM30.7949 23.3333L31.7505 23.6281C31.888 23.1822 31.699 22.7005 31.2949 22.4672L30.7949 23.3333ZM30.797 16.6652L31.297 17.5312C31.7015 17.2977 31.8904 16.8153 31.7522 16.3692L30.797 16.6652ZM28.2864 12.3167L29.0203 11.6374C28.7031 11.2947 28.1908 11.2171 27.7864 11.4507L28.2864 12.3167ZM22.5106 8.98454L23.5106 8.98454C23.5106 8.51796 23.188 8.11339 22.7331 8.00959L22.5106 8.98454ZM17.4893 8.98151L17.2668 8.00658C16.8119 8.11038 16.4893 8.51495 16.4893 8.98151L17.4893 8.98151ZM22.5106 27.8126L21.5106 27.8126L22.5106 27.8126ZM17.4893 27.8125L18.4893 27.8125L17.4893 27.8125ZM14.4893 13.9192L13.9893 14.7852L14.4893 13.9192ZM10.1606 16.9614C10.6107 15.5025 11.3834 14.1421 12.4462 12.9965L10.98 11.6362C9.70863 13.0066 8.78631 14.6319 8.24951 16.3717L10.1606 16.9614ZM11.0818 25.1488C10.6878 24.4664 10.3813 23.7588 10.1581 23.0386L8.24771 23.6305C8.51465 24.492 8.88083 25.3366 9.34977 26.1488L11.0818 25.1488ZM12.4474 27.0038C11.9353 26.4504 11.4758 25.8312 11.0818 25.1488L9.34977 26.1488C9.81868 26.961 10.367 27.7004 10.9796 28.3623L12.4474 27.0038ZM22.2882 30.0434C20.7647 30.391 19.2002 30.3799 17.7117 30.0403L17.2668 31.9902C19.042 32.3952 20.9107 32.4091 22.7331 31.9932L22.2882 30.0434ZM29.8393 23.0384C29.3892 24.4973 28.6166 25.8577 27.5538 27.0033L29.0199 28.3636C30.2913 26.9932 31.2136 25.3679 31.7505 23.6281L29.8393 23.0384ZM28.9181 14.851C29.3121 15.5333 29.6187 16.2409 29.8418 16.9612L31.7522 16.3692C31.4853 15.5077 31.1191 14.6632 30.6502 13.851L28.9181 14.851ZM27.5525 12.9959C28.0646 13.5493 28.5242 14.1686 28.9181 14.851L30.6502 13.851C30.1813 13.0388 29.6329 12.2994 29.0203 11.6374L27.5525 12.9959ZM17.7118 9.95645C19.2352 9.60879 20.7997 9.61985 22.2882 9.95948L22.7331 8.00959C20.958 7.60456 19.0893 7.59068 17.2668 8.00658L17.7118 9.95645ZM18.4893 12.1872L18.4893 8.98151L16.4893 8.98151L16.4893 12.1872L18.4893 12.1872ZM14.9893 13.0532L12.2131 11.4504L11.2131 13.1824L13.9893 14.7852L14.9893 13.0532ZM11.4786 20.8659L8.70291 22.4685L9.70291 24.2005L12.4786 22.598L11.4786 20.8659ZM12.4786 17.4018L9.70506 15.8005L8.70506 17.5326L11.4786 19.1339L12.4786 17.4018ZM18.4893 31.0153L18.4893 27.8125L16.4893 27.8125L16.4893 31.0153L18.4893 31.0153ZM13.9893 25.2145L11.2135 26.817L12.2135 28.5491L14.9893 26.9465L13.9893 25.2145ZM28.7868 26.8174L26.0106 25.2145L25.0106 26.9466L27.7868 28.5494L28.7868 26.8174ZM23.5106 31.0183L23.5106 27.8126L21.5106 27.8126L21.5106 31.0183L23.5106 31.0183ZM30.297 15.7992L27.5212 17.4018L28.5212 19.1338L31.297 17.5312L30.297 15.7992ZM31.2949 22.4672L28.5213 20.8659L27.5213 22.5979L30.2949 24.1993L31.2949 22.4672ZM23.5106 12.1872L23.5106 8.98454L21.5107 8.98454L21.5107 12.1872L23.5106 12.1872ZM27.7864 11.4507L25.0107 13.0532L26.0107 14.7853L28.7864 13.1827L27.7864 11.4507ZM21.5107 12.1872C21.5106 14.4966 24.0107 15.94 26.0107 14.7853L25.0107 13.0532C24.344 13.4381 23.5106 12.957 23.5106 12.1872L21.5107 12.1872ZM27.5212 17.4018C25.5212 18.5565 25.5213 21.4432 27.5213 22.5979L28.5213 20.8659C27.8546 20.481 27.8546 19.5187 28.5212 19.1338L27.5212 17.4018ZM26.0106 25.2145C24.0107 24.0598 21.5106 25.5032 21.5106 27.8126L23.5106 27.8126C23.5106 27.0428 24.344 26.5617 25.0106 26.9466L26.0106 25.2145ZM18.4893 27.8125C18.4893 25.5031 15.9893 24.0598 13.9893 25.2145L14.9893 26.9465C15.656 26.5616 16.4893 27.0427 16.4893 27.8125L18.4893 27.8125ZM12.4786 22.598C14.4786 21.4433 14.4786 18.5565 12.4786 17.4018L11.4786 19.1339C12.1453 19.5188 12.1453 20.481 11.4786 20.8659L12.4786 22.598ZM16.4893 12.1872C16.4893 12.957 15.656 13.4381 14.9893 13.0532L13.9893 14.7852C15.9893 15.9399 18.4893 14.4966 18.4893 12.1872L16.4893 12.1872Z" fill="#535251"/>
</svg>
