<svg width="56" height="57" viewBox="0 0 56 57" fill="none" xmlns="http://www.w3.org/2000/svg">
<path d="M0 28.9209C0 13.4569 12.536 0.920898 28 0.920898C43.464 0.920898 56 13.4569 56 28.9209C56 44.3849 43.464 56.9209 28 56.9209C12.536 56.9209 0 44.3849 0 28.9209Z" fill="#F68634"/>
<path d="M31.0286 35.2682L35.213 39.3078C36.0703 40.1335 36.0703 41.4746 35.213 42.3012C34.3567 43.1278 32.9688 43.1278 32.1133 42.3012L27.9992 38.3316L23.8887 42.3012C23.4601 42.7141 22.8984 42.9207 22.3368 42.9207C21.7761 42.9207 21.2153 42.7141 20.7867 42.3012C19.9304 41.4746 19.9304 40.1344 20.7858 39.3078L24.9707 35.2682C23.4471 34.9331 21.9776 34.3503 20.6241 33.5306C19.5999 32.9072 19.2922 31.6012 19.9376 30.6116C20.5811 29.6207 21.9346 29.3224 22.9607 29.9458C26.025 31.8065 29.9725 31.807 33.0386 29.9458C34.0647 29.3224 35.4177 29.6207 36.0627 30.6116C36.708 31.6003 36.3994 32.9072 35.3752 33.5306C34.0217 34.3512 32.5522 34.9331 31.0286 35.2682Z" fill="white"/>
<path fill-rule="evenodd" clip-rule="evenodd" d="M20.4957 22.1467C20.4957 26.1302 23.853 29.3704 27.981 29.3704C32.1099 29.3704 35.4662 26.1302 35.4662 22.1467C35.4662 18.162 32.1099 14.9209 27.981 14.9209C23.853 14.9209 20.4957 18.162 20.4957 22.1467ZM31.0802 22.1465C31.0802 20.4968 29.69 19.1553 27.981 19.1553C26.2732 19.1553 24.8817 20.4968 24.8817 22.1465C24.8817 23.795 26.2732 25.1373 27.981 25.1373C29.69 25.1373 31.0802 23.795 31.0802 22.1465Z" fill="white"/>
</svg>
