<svg width="24" height="24" viewBox="0 0 24 24" fill="none" xmlns="http://www.w3.org/2000/svg">
<circle cx="12" cy="12" r="12" fill="#91CCDE"/>
<path d="M15 12C15 10.4397 14.8632 8.9099 14.6004 7.42078C14.4787 6.73114 13.687 6.41982 13.1066 6.81166L11.0072 8.22903C10.6766 8.45219 10.2869 8.57143 9.88808 8.57143H8C6.89543 8.57143 6 9.46686 6 10.5714V13.4286C6 14.5331 6.89543 15.4286 8 15.4286H9.88808C10.2869 15.4286 10.6766 15.5478 11.0072 15.771L13.1066 17.1883C13.687 17.5802 14.4787 17.2689 14.6004 16.5792C14.8632 15.0901 15 13.5603 15 12Z" fill="white" stroke="white" stroke-linejoin="round"/>
<path d="M18 9C18 9 18.5 10 18.5 12C18.5 14 18 15 18 15" stroke="white" stroke-width="2" stroke-linecap="round"/>
</svg>
