<?xml version="1.0" encoding="UTF-8"?>
<svg xmlns="http://www.w3.org/2000/svg" xmlns:xlink="http://www.w3.org/1999/xlink" width="56px" height="56px" viewBox="0 0 56 56" version="1.1">
<defs>
<linearGradient id="linear0" gradientUnits="userSpaceOnUse" x1="120" y1="240" x2="120" y2="0" gradientTransform="matrix(0.233333,0,0,0.233333,0,0)">
<stop offset="0" style="stop-color:rgb(11.372549%,57.647059%,82.352941%);stop-opacity:1;"/>
<stop offset="1" style="stop-color:rgb(21.960784%,69.019608%,89.019608%);stop-opacity:1;"/>
</linearGradient>
</defs>
<g id="surface1">
<path style=" stroke:none;fill-rule:nonzero;fill:url(#linear0);" d="M 56 28 C 56 43.464844 43.464844 56 28 56 C 12.535156 56 0 43.464844 0 28 C 0 12.535156 12.535156 0 28 0 C 43.464844 0 56 12.535156 56 28 Z M 56 28 "/>
<path style=" stroke:none;fill-rule:nonzero;fill:rgb(78.431373%,85.490196%,91.764706%);fill-opacity:1;" d="M 18.953125 30.046875 L 22.277344 39.242188 C 22.277344 39.242188 22.691406 40.101562 23.136719 40.101562 C 23.582031 40.101562 30.195312 33.21875 30.195312 33.21875 L 37.550781 19.011719 L 19.070312 27.671875 Z M 18.953125 30.046875 "/>
<path style=" stroke:none;fill-rule:nonzero;fill:rgb(66.27451%,77.647059%,84.705882%);fill-opacity:1;" d="M 23.359375 32.40625 L 22.71875 39.183594 C 22.71875 39.183594 22.453125 41.257812 24.53125 39.183594 C 26.605469 37.105469 28.59375 35.503906 28.59375 35.503906 "/>
<path style=" stroke:none;fill-rule:nonzero;fill:rgb(100%,100%,100%);fill-opacity:1;" d="M 19.011719 30.375 L 12.179688 28.148438 C 12.179688 28.148438 11.363281 27.816406 11.625 27.066406 C 11.679688 26.910156 11.789062 26.777344 12.117188 26.550781 C 13.628906 25.496094 40.140625 15.96875 40.140625 15.96875 C 40.140625 15.96875 40.890625 15.714844 41.332031 15.882812 C 41.554688 15.953125 41.722656 16.136719 41.769531 16.363281 C 41.820312 16.5625 41.839844 16.765625 41.832031 16.964844 C 41.828125 17.140625 41.808594 17.304688 41.789062 17.558594 C 41.628906 20.164062 36.796875 39.609375 36.796875 39.609375 C 36.796875 39.609375 36.507812 40.746094 35.472656 40.785156 C 34.957031 40.800781 34.460938 40.609375 34.089844 40.25 C 32.058594 38.5 25.03125 33.78125 23.480469 32.742188 C 23.410156 32.695312 23.363281 32.617188 23.351562 32.53125 C 23.332031 32.421875 23.449219 32.285156 23.449219 32.285156 C 23.449219 32.285156 35.683594 21.414062 36.007812 20.273438 C 36.03125 20.183594 35.9375 20.140625 35.808594 20.179688 C 34.996094 20.476562 20.914062 29.371094 19.359375 30.355469 C 19.246094 30.386719 19.128906 30.394531 19.011719 30.375 Z M 19.011719 30.375 "/>
</g>
</svg>
