<svg width="56" height="57" viewBox="0 0 56 57" fill="none" xmlns="http://www.w3.org/2000/svg">
<path d="M0 28.9209C0 13.4569 12.536 0.920898 28 0.920898C43.464 0.920898 56 13.4569 56 28.9209C56 44.3849 43.464 56.9209 28 56.9209C12.536 56.9209 0 44.3849 0 28.9209Z" fill="#0077FF"/>
<path d="M28.9738 40.9209C17.6989 40.9209 11.268 33.038 11 19.9209H16.6477C16.8332 29.5485 20.9969 33.6266 24.2948 34.4674V19.9209H29.6127V28.2242C32.8695 27.8668 36.2911 24.0831 37.4453 19.9209H42.7633C42.3283 22.0795 41.4613 24.1234 40.2164 25.9247C38.9715 27.7259 37.3756 29.2459 35.5284 30.3894C37.5903 31.4342 39.4115 32.9131 40.8718 34.7285C42.3321 36.5439 43.3983 38.6544 44 40.9209H38.1462C37.606 38.9523 36.5081 37.1901 34.9901 35.8551C33.4721 34.5202 31.6015 33.6718 29.6127 33.4164V40.9209H28.9738Z" fill="white"/>
</svg>
