<svg width="56" height="57" viewBox="0 0 56 57" fill="none" xmlns="http://www.w3.org/2000/svg">
<path d="M0 28.9209C0 13.4569 12.536 0.920898 28 0.920898C43.464 0.920898 56 13.4569 56 28.9209C56 44.3849 43.464 56.9209 28 56.9209C12.536 56.9209 0 44.3849 0 28.9209Z" fill="#62CF72"/>
<path fill-rule="evenodd" clip-rule="evenodd" d="M40.3019 16.9293C37.0776 13.7013 32.7897 11.9228 28.2212 11.9209C18.8082 11.9209 11.1469 19.5815 11.1432 28.9975C11.1419 32.0075 11.9283 34.9455 13.4228 37.5353L11 46.3849L20.0533 44.0101C22.5477 45.3706 25.3562 46.0878 28.2144 46.0888H28.2214C28.2219 46.0888 28.221 46.0888 28.2215 46.0888C37.6336 46.0888 45.2954 38.4274 45.2993 29.0112C45.301 24.4479 43.5262 20.1572 40.3019 16.9293ZM28.2213 43.2046H28.2155C25.6686 43.2036 23.1704 42.5192 20.991 41.226L20.4728 40.9184L15.1004 42.3276L16.5344 37.0897L16.1969 36.5526C14.776 34.2926 14.0256 31.6805 14.0267 28.9985C14.0298 21.1723 20.3975 14.8052 28.2271 14.8052C32.0183 14.8064 35.5823 16.2849 38.2623 18.9679C40.9422 21.6509 42.4173 25.2172 42.4157 29.01C42.4125 36.8368 36.045 43.2046 28.2213 43.2046Z" fill="white"/>
<path fill-rule="evenodd" clip-rule="evenodd" d="M36.0073 32.5737C35.5806 32.3601 33.4826 31.328 33.0915 31.1854C32.7004 31.043 32.4159 30.9718 32.1314 31.399C31.847 31.8261 31.0292 32.7873 30.7803 33.0722C30.5314 33.3568 30.2824 33.3927 29.8558 33.1789C29.4291 32.9653 28.0541 32.5148 26.4243 31.061C25.1556 29.9294 24.2993 28.5321 24.0503 28.1048C23.8014 27.6777 24.0238 27.4468 24.2375 27.234C24.4294 27.0427 24.6642 26.7356 24.8776 26.4864C25.0909 26.2373 25.162 26.0592 25.3043 25.7746C25.4465 25.4898 25.3755 25.2405 25.2687 25.027C25.162 24.8134 24.3086 22.7131 23.9531 21.8585C23.6066 21.0266 23.2549 21.1393 22.9929 21.1261C22.7444 21.1136 22.4595 21.1111 22.1751 21.1111C21.8906 21.1111 21.4283 21.2179 21.0372 21.645C20.6461 22.0723 19.5436 23.1047 19.5436 25.2048C19.5436 27.3053 21.0727 29.3344 21.2861 29.6191C21.4994 29.904 24.2951 34.214 28.5756 36.0623C29.5937 36.502 30.3886 36.7646 31.0083 36.9612C32.0305 37.286 32.9608 37.2401 33.696 37.1302C34.5159 37.0078 36.2207 36.098 36.5762 35.1014C36.9319 34.1045 36.9319 33.25 36.8251 33.0721C36.7185 32.8942 36.434 32.7873 36.0073 32.5737Z" fill="white"/>
</svg>
